<?xml version="1.0" encoding="utf-8"?>
<!-- Generator: Adobe Illustrator 23.0.2, SVG Export Plug-In . SVG Version: 6.00 Build 0)  -->
<svg version="1.1" id="Layer_1" xmlns="http://www.w3.org/2000/svg" xmlns:xlink="http://www.w3.org/1999/xlink" x="0px" y="0px"
	 viewBox="0 0 1080 1080" style="enable-background:new 0 0 1080 1080;" xml:space="preserve">
<style type="text/css">
	.st0{fill:#E6E6E6;}
</style>
<g>
	<g>
		<path class="st0" d="M998.7,360.9l26.4,21l7.9-5.2l15.2,6.2l4.1-6.7l-17.7-15.2l-0.7-9.1l18-5l6.7,16l4.1-6.8l8.9,7.6
			c0,0-1,11.1-3.5,14.1c-2.1,2.4-2.4,2.8-2.5,2.9c0.5-0.1,8.3-1.8,11.9-11.9c0.7-1.8,1.7-2.7,2.8-3.1v111.2
			c-4.4-4.2-10.9-11-15.4-18c-7.3-11.4,8.9-28.3,8.9-28.3l-1.1-14.6l-8.8-7.6l-5.3-9.7l-14.9-2.5l-27.5-11.7
			C1016.1,384.4,996.1,375.8,998.7,360.9z"/>
		<path class="st0" d="M1080.3,489.3v595.4h-694v0.5c-1.6-3.3-3-6.5-3.8-9.5c-3.8-13.5-3.8-13.5-3.8-13.5l5.5-12.4l-8.7-29.7
			l10.8-52.3l22.9-12.8l22.7-16.4l11.8,10.1l-15.2,17.7h23.9l2.8,12.7l-3.2,5.8l6.2,20.7l5.9-30.8l11.7-3.6c0,0-10.9-35,9.2-24.6
			s27.7-10.4,27.7-10.4l38.5,10.9l-23.9-23.9l-9.8-20.4l6.5-11.5l29.4,11.6l-22.9-23.1l4.4-15l-8.2,1.5l-1.8,12.1l-25.9-1.7
			l12.5,7.3c0,0,2.8,12.7,0.3,15.6c-2.5,3-5.2,4.1-5.2,4.1l-22-12.1l0.3-8.3l-15.3,3.9c0,0-5.5-11.5-12.4-17.4s-6.9-5.9-6.9-5.9
			l-26.2,30.5l-3.8-13.5c0,0,13.7-25.9,22.8-26.5c9.1-0.7,9.1-0.7,9.1-0.7l17-17.8c0,0,7.8-19,23.2-21c15.2-2.1,11.9,9.6,11.8,10.1
			l16.3-15h11.9L515,829l-9.8,10.6l11.9-6.9l15.4-8.9l9.8,20.4l10.4-8.1l21.1-0.7l9.4,14.9l31.8-5.2l-32-10.4l5.5-12.4l-16.3,3.1
			l-6.4-24.3l28.1-4.9c0,0,18.3,10.6,21.7,6.6c3.4-3.9,4.8-21.5,23.8-13.8c19,7.8,27.8,3.4,27.8,3.4s-21.7-4.3-17-18
			c2.3-6.6,12.8-1,12.8-1l15.2-5.7l40.5,0.6l8.9-4.4l4.2,7l-29.6,22.4l-26.3,28.6l8.2-1.5c0,0,36.1-34,49.7-35.9
			c13.6-1.9,33.5-7.1,43.9,8.6c10.4,15.8,10.4,15.8,10.4,15.8l0.7-14.8l-14.2-17.3l19.7-7l-31.1,2.4c0,0-19.1,2.4-25.7-11.9
			l-40.3-10.7l-9.7-6.6l-6.3,1.4l2.4,7.2L664,762.1l-5.3-9.7l-26,8.4c0,0-11.9,25.7-32.4,21.8c-20.5-4-20.5-4-20.5-4
			s-7.3,0.6-13.2,7.4c-5.9,6.9-33.9,13.6-33.9,13.6l-5.6-13.4l-11,12.8l-5.6-13.4l-6.6,9.7l-7,4.2l-13.5,3.8l15.2-17.7l8.9-4.3
			l-7.6-3.1c0,0,4.5-13.2,13.5-15.7s-2.1-15.5,6.2-15.2c8.3,0.3,10.1,0.2,10.1,0.2l6.4,12.4l10.4-8.1l10.4,3.8c0,0,3.4-3.9,10.3,2
			c6.9,5.9,6.9,5.9,6.9,5.9l4.5-13.2l21.1,11.3c0,0,9.4,3,12.8-1c3.4-3.9,4.2-4.9,4.2-4.9l4.8-9.6l-22.5-5.7l12.3-8.3l16.7,2.4
			l-7-7.7l17.2-16l-18.9,6c0,0-12.4,6.4-26,8.4c-13.6,1.9-7.6-15.1-7.6-15.1l6.5,0.4l-10-10.3l11.7-3.6c0,0-11.7-8.3-3.6-11.7
			c6.6-2.8,7.8-3.3,8-3.3l-18.9,4.2l-7.2,14.3l-12.9-0.9l5.5-12.4c0,0-6.2-8.7,3.3-17.7c9.4-9,16.5-13.2,16.5-13.2l2.1-8.4l9.7-5.3
			l-7.6,20.8l11.1,1l0.4,5.5l8.4,2.1l8.2-1.5l-11.7-8.3l-1.4-18.3l5.1-5.9l-0.3-15.6l11.9,23.9l-1,11.1l4.6,0.6l6.2-3.2l-16.7-38.3
			l3.4-3.9l8.6,4l-2.8-24.6l13.2-7.4l-3.6-11.7h11.9L655,580l0.1,13.8l5.1,6.1l0.7,9.1c0,0,7.6,3.1,6.3,10.6s-4,20.5-4,20.5l8.2-1.5
			l3.1-19.5l-6.3-10.5l10.7-4.5l6.6,2.3l5.9-6.9l-4.9-4.2l-18.7-4.1l-5.5-11.5l3.1-7.6l-8.9-7.6l-5.3,2.2l-3.2-6.2l6.1-5.1
			l-4.8-14.3c0,0,3.4-3.9,8.4,2.1c5.1,6.1,10.3,13.9,13.9,13.7c3.7-0.3,7.9-5.2,7.9-5.2l-8.7-5.8c0,0,3.9-8.6,9.8-3.5
			c5.9,5.1,15.9-8.6,20.1-1.5c4.2,7-0.3,8.3,4.2,7s9,9.4,9,9.4l0.6,7.3c0,0,11.7,8.3,10.1,12.1s5.5-0.4,16.4-1.2c11-0.8,12,0,12,0
			l0.6,7.3l13.8-0.1l-4.7,11.4l12.5-4.6l8.8,7.6l3,2.5l-0.9,1l12.9,12.8l7.4,13.2l-5.1,5.9l8.8,7.6l-8.6,8c0.7-0.4,12.5-6.4,17-5.9
			c4.6,0.6,12.4,5.5,12.4,5.5l19.6-8.8c0,0-1.3,7.4,6.6,14.2c7.9,6.8,1.1,14.6,1.1,14.6l0.7,9.1l3.7-0.3l0.7,9.1l-9.2,12.6l7.4,1.3
			l7.8-19l17,6.1l12.1,1.9l9.9,22.2l2.7-13.1l13.9,1.7l12.5,7.3l14.6-1.1l-13.2-4.5l-16.6-12.5l6.5-11.5l-1.8-11.8l8.3,0.3
			l44.9-14.4l-35.7,1.8l-2.4-7.2l-4.5,13.2l-13.9-1.7l-1.7,13.9c0,0-7.2,14.3-6.9,18c0.3,3.6-10.8,2.6-15.3-8
			c-4.5-10.7-14.1-3.5-14.1-3.5l-16.9-4.2l1.3-7.4l28.5,0.6l-29-6.1l2.1-8.4L859.8,642l-1.5-8.2l-7-7.7l21.8-3.5l20.1-13.5l-4.1-5.2
			l-24.8,12.9l-12.9-0.9l-18.6,21.6l-18.1-8.7l-3.6-23.6l-16-5.2c0,0-3.4-8,4.9-7.7c8.3,0.3,7.9-5.2,7.9-5.2l-17.4,0.4l-12.8-11
			c0,0-6.9-5.9-12.2-3.7s-5.3,2.2-5.3,2.2l-3.6-11.7l-6.2,3.2l-24.2-3.7l2.6-14.9l-10.4-3.8c0,0,5.2-16-8.4-26l-1.8,12.1l-21.4-3
			l1.4-5.6c0,0-4.6-0.6-5.3,2.2s-2.3,6.6-2.3,6.6s-12.3-7.8-13.1-10.3c-2.4,2.2-11,8.5-11,8.5s-8.9-7.6-0.4-17.4s11.1,1,11.1,1
			l9-2.5l2.3,5.3l6.3-1.4l-5.2-7.9l11-0.8l2.9,2.5l8.6-8l2.5,9l4.4-3.1l9.3,13.1l10.4,3.8l-0.2,10.1l7.3-0.6l-1-12.8
			c0,0-11.3-2.8-13.8-11.8c-2.5-9-6.6-14.2-6.6-14.2l25.6,10c0,0,12.3-8.3,14.6-1.1c2.4,7.2,12.2,3.7,12.2,3.7l-16.7-14.4l-15.2-6.2
			l-6.2,3.2l-4.6-12.5c0,0,13.5-3.8,15.8,1.6c2.2,5.3,2.2,5.3,2.2,5.3l17.3-2.2l-17.3-9.7l17.4-0.4l18.4,12.4l4.1,5.2l3.6-0.3
			l7.7,16.9l9.8,8.5l8.7-6.2l-17.4-11.6l0.7-2.8c0,0-19.8-18.7-16.7-26.3c3.1-7.6,17.9,5.1,17.9,5.1l-10.7-19.4l19.3-0.5
			c0,0-23.3-16.6-25.6-22c-2.2-5.3-0.6-7.3-0.6-7.3s12.5-16.6,21.4-9c8.8,7.6,8.8,7.6,8.8,7.6l6.2,8.7l-4-17.2
			c0,0,18.3-1.4,22.5,5.6s5.2,7.9,5.2,7.9l3.9-8.6L821.3,402l-26.9-2.6l3.9-8.6l5.4-2.3l-8.3-12.2l14.1,3.5c0,0,5.8-8.7,11.3,2.8
			s15.2,18.2,15.2,18.2l11.7,8.3l11.4,4.6l18,18.9l2.7,10.8l-9.9,1.2l0,0l-5.2,0.6l-4,0.5l3.3,0.5l9.1,1.3l4.4,0.6l7.9,6.8l2.9,2.5
			l4.9,4.2l3,2.6l-5.7,4.2l-12.6,9.2l2.1,3.5l18.8-12.6l1.3-0.9v0.9l-0.2,21.2l6.7,4.1l-1.2-16.5l19.3,11.4c0,0,5,18,10.9,23.1
			c5.9,5.1,17.4-0.4,17.4-0.4l1.6-3.8c0,0,15.6,11.7,15.3,20l3.4-3.9l-7.6-15.1l-13.5-8.2l-13.4,5.6l-9.8-20.4L912.6,475l-2.1-6.3
			l-0.3-0.9l-12.4-12l-3.5-3.4l-6.6-2.3l-4.6-12.5l18.5,13.4l6.8,4.9l-4.2-7l-0.3-0.2l-21.3-18.3c0.1,0.2,2,3.3-1-0.9
			c-3.1-4.4-1.8,0.1-4.9-4.2c-3.1-4.4-3.9-3.4-3.9-3.4l-8.6-15.9l-9.1,0.7l-12.8-11l-6.3,1.4l-1-12.8l-6.2-8.7l8.9-4.3l-1.5-8.2
			l6.8-7.9l2.8,12.7l6.5,0.4c0,0-9.2,12.6-0.4,18.4c8.7,5.8,20.1-1.5,20.1-1.5l2-22.2l-12.8-11l6.1-5.1l2.9,2.5l7.3-12.5l11.5,18.4
			l-3.1,7.6l0.5,31.2l9.6-7.2l3.4,8l6.9-6l-15.7-13.5c0,0,1.1-9.3,18.4-11.5l4.5,10.7l4.9,4.2l-3.1,19.5L925,383l13.4,6.3
			c0,0,11.4,4.7,2.9,14.5c-8.4,9.8-29,17.8-29,17.8l-2.3,6.6l25.1-9.2l9.6-7.2c0,0,4.9,4.2,1.7,10s-6.6,9.7-6.6,9.7l18.3,10.6
			l-1.5-8.2l-5.8-3.2l1.7-37.8l12.5-4.6l35,1l12.2,3.7l-8.3,23.6l-5.2,4.1l4.1,5.2l-6.2,27.1l0.7,9.1l14.8-47.1
			c0,0,6.5-23.5,12.4-18.4c5.9,5.1,5,18,5,18l9.3-10.8l19.7,4.9l-0.6,4.6c0,0,12.6,9.2,11.1,13c-1.6,3.8-9.2,12.6-14.4,28.7
			c-5.2,16-41.7,32.6-41.7,32.6l17.4,11.5l-0.7-9.1l13.2-7.4l15.4-15.9c0,0,15.5,9.9,12.2,15.6c-3.2,5.8,6.2-3.2,6.2-3.2
			L1080.3,489.3z"/>
		<path class="st0" d="M887.8,468.4l36,0.5l0.6-11.1l4.2-11.6c0,0-18.2-6.2-27.1,4.9C892.7,462.3,887.8,468.4,887.8,468.4z"/>
		<polygon class="st0" points="867.3,442.1 862.5,448.2 857.9,464.4 878.7,469.4 889.2,456.2 878.7,452.8 		"/>
		<polygon class="st0" points="512.3,824 501.2,831.7 503.7,845.3 519.2,836.1 		"/>
		<path class="st0" d="M472.4,1024.2c0,0-13.4-4-19.6,5.9s20.9,5,20.9,5L472.4,1024.2z"/>
	</g>
</g>
</svg>
