<?xml version="1.0" encoding="utf-8"?>
<!-- Generator: Adobe Illustrator 23.0.2, SVG Export Plug-In . SVG Version: 6.00 Build 0)  -->
<svg version="1.1" id="Layer_1" xmlns="http://www.w3.org/2000/svg" xmlns:xlink="http://www.w3.org/1999/xlink" x="0px" y="0px"
	 viewBox="0 0 937 899" style="enable-background:new 0 0 937 899;" xml:space="preserve">
<style type="text/css">
	.st0{fill:#E6E6E6;}
	.st1{fill:#F2F2F2;}
	
		.st2{opacity:0.6;fill:none;stroke:#FFFFFF;stroke-width:1.9992;stroke-linecap:round;stroke-linejoin:round;stroke-miterlimit:10;stroke-dasharray:2.9988,4.9981,2.9988,4.9981,2.9988,3.9985;}
</style>
<g>
	<path class="st0" d="M943.9-185.3v796.8c-4.4,8.8-13.9,25.8-25.4,33.5c-15.9,10.6-41.5,31-56.6,19.4c-15.2-11.6-29.4,2.6-29.4,2.6
		s10.6,11.6,1.3,28.9c-4.7,8.7-13.9,5.3-16.4,11.9c0,0-14.6-0.9-20.2,6l-14.7,79.9c-9.1,20.6-18.6,38-18.6,38s-19.8,21.1-28.6,32.8
		c-8.8,11.7-27.9-1.4-27.9-1.4l12.3-20.9l-2.4-33.8l-20.9-0.2l-4.8-15.3c0,0-12.9-13.8-23.7-8.8c-10.8,5-13.5,4-13.5,4l2.2-38.1
		l10.1-11.2l-12.3-3.1l18.6-38l25.1-88l0.6,22.7l16.5-28.3c0,0-5.5-9.5-17.6-5c-12.1,4.5-12.5,1.4-23.9,24.1
		c-11.4,22.7-2.2,38.1-2.2,38.1s-9.5,17.5-22.6,12.6c-13.2-4.9-20.9-12.2-20.9-12.2l3.9,29.9l6.1,3.7l4.5,12.1l-11.7,3.2l2.2,14.3
		l-11.7,31.6l-24.5,1.4l-5.4,14.5l-17.2,10.1L555.5,768l-4.4,11.8c0,0-20.5,2.9-22.4-8.3c-1.8-11.2-0.9-25.8-7.2-25.1
		c-6.2,0.7-6.3,17.1-6.3,17.1l-21.2,8.6c0,0-19.5,12.2-36.1,4.6c-16.6-7.7-7.5,12.2,7.9,14.9c0,0-14.6,11.1-30.7,14.1
		c-16.1,3-16.1,3-16.1,3l-7,10.9l-20.5,14.9l-13.5,4l1,9.4l-28.6,4.4l-7.4,7.7l-14.8,3.5c0,0,5.5,9.5-36.8,10.3
		c-42.2,0.8-42.2,0.8-42.2,0.8l-22.3,15.7c0,0-33.5,5.5-57.2-3.2c-23.7-8.8-44.1-10.4-44.1-10.4l0.4-25.3l-12,0l-38.2-14.2
		l25.9-29.3l-11.7-8.8l-26-18.6l3.4-9.2c0,0-21.7-14-30.7-26.3c-8.9-12.3-8.9-12.3-8.9-12.3l0.9-14.6l-20-26.9L0.4,634l18.5-21.6
		l16.8-25.2l15.8,5.9l-8.8,23.7l24.3-9l7.6,11.8l-1.1,7.1l14,18.7l-5.5-33.5l10.5-8.1c0,0-24.3-31.5,0.1-28.4
		c24.3,3,24.2-21,24.2-21l43.2-3.4l-33.2-15.3l-17.6-17l2.2-14.1l34.2,0.7l-31.9-14.8l-1.2-16.9l-7.7,4.6l2.7,13l-26.9,8l15.5,2.7
		c0,0,7.6,11.8,6.1,15.7c-1.5,3.9-3.8,6.1-3.8,6.1l-27-4l-2.8-8.5l-14.1,9.7c0,0-9.9-9.7-19.1-13.1c-9.2-3.4-9.2-3.4-9.2-3.4
		L10.9,545L2,532.8c0,0,4.2-31.4,13.2-35.5c9-4.1,9-4.1,9-4.1l10.6-24.5c0,0,0.7-22.2,15.7-30.1c14.9-7.9,15.8,5.9,15.8,5.9
		l10.9-21.4l12.1-4.5l-10.6,25.8l-5.9,14.5l9.5-11.5l12.3-14.9l17.6,17l7.5-12.2l21.2-8.6l15.2,11.6l30.3-17.2l-36.5,1.4l0.9-14.6
		l-15.4,9.3l-15.7-22.3l26.7-15.5c0,0,22.5,3.9,24.5-1.4c2-5.3-3.2-23.7,19-22.9c22.2,0.7,29.5-7,29.5-7s-23.6,3.8-24-11.9
		c-0.2-7.6,12.6-5.8,12.6-5.8l13.3-11.5l41.4-14.6l7.4-7.7l6.9,5.6l-21.6,33.9l-16,39l7.7-4.6c0,0,23.8-48.1,36.9-55.2
		c13.1-7.1,31.3-19.8,47.8-7.7c16.5,12.1,16.5,12.1,16.5,12.1l-4.8-15.3l-20.9-12.3l17.4-14.5l-30.7,14.1c0,0-18.5,9.6-30.6-2.3
		l-45,4.3l-12.3-3.1l-5.9,3.8l5.1,6.4l-15.7,18.1l-9.1-7.8L172.6,331c0,0-2.3,30.6-24.7,34.3c-22.3,3.7-22.3,3.7-22.3,3.7
		s-7.2,3.3-10.6,12.5c-3.4,9.2-29.3,26.6-29.3,26.6l-10.7-11.5l-6.3,17.1l-10.7-11.5l-3.1,12.3l-5.6,6.9l-12.3,8.9l8.8-23.7l7.4-7.7
		l-8.9-0.3c0,0-0.4-15.1,7.8-21.1c8.2-5.9-7.9-14.9,0.6-17.8c8.5-2.8,10.3-3.6,10.3-3.6l11.2,10.1l7.5-12.2l12-0.1
		c0,0,1.9-5.3,11.2-1.8c9.2,3.4,9.2,3.4,9.2,3.4l-0.4-15.1l25.6,3.5c0,0,10.7-0.5,12.6-5.8c1.9-5.3,2.4-6.6,2.4-6.6l1.3-11.5
		l-25,2.7l9.3-13l17.9-3.8l-10-5.2l11.4-22.7l-16.9,13.2c0,0-10.1,11.2-23.3,18.3c-13.1,7.1-13.3-12.4-13.3-12.4l6.7-2l-14-6.7
		l10.5-8.1c0,0-15-4.1-8.1-10.5c5.2-4.9,6.5-6.1,6.8-6.4L90.1,275l-1.9,17.3l-13.5,4l0.9-14.6c0,0-9.6-6.5-3.4-19.2
		c6.2-12.7,11.8-19.6,11.8-19.6l-1-9.4l7.9-9.1l0.1,24l11.7-3.2l2.5,5.4l9.4-1l7.7-4.6l-15-4.1l-8.3-18l2.9-7.9l-6.1-15.7l21.1,19.8
		l3.2,11.7l4.9-1.2l5.1-5.6l-31.3-32.6l1.9-5.3l10.2,0.8l-12.1-23.9l10.6-12.5l-8.1-10.5l12.1-4.5l13.7,3.6l5.3,13.9l7.4,4.2l4.1,9
		c0,0,8.9,0.3,10.4,8.3c1.5,8,3.7,22.3,3.7,22.3l7.7-4.6l-4.2-21l-10.4-8.3l9.2-8.6l7.6-0.2l3.4-9.2l-6.6-2.4l-20.5,2.9l-9.9-9.7
		l0.3-8.9l-11.8-4.4l-4.6,4.3l-5.6-5.1l4.2-7.4l-10.2-12.8c0,0,1.9-5.3,9.4-1c7.4,4.2,15.7,10.3,19.3,8.6c3.6-1.7,6-8.2,6-8.2
		l-11-2.6c0,0,0.8-10.2,8.7-7.3c7.9,2.9,12.9-14.7,19.9-9.1c6.9,5.6,2.8,8.5,6.9,5.6c4.1-3,12.7,6.2,12.7,6.2l3.3,7.2
		c0,0,15,4.1,14.8,8.5c-0.1,4.4,5.4-2.5,16.2-7.5c10.8-5,12.1-4.5,12.1-4.5l3.3,7.2l13.9-5.3l-0.4,13.3l11-9.4l11.8,4.4l3.9,1.5
		l-0.5,1.3l17.9,8.1l12.5,10.6l-2.9,7.9l11.8,4.4l-5.7,11.4c0,0,10.1-11.2,15.1-12.4c4.9-1.2,14.6,0.9,14.6,0.9l16.5-16.3
		c0,0,1.5,8,12,11.9c10.5,3.9,6.6,14.4,6.6,14.4l4.1,9l3.6-1.7l4.1,9l-4.5,16.3l8-1.5l0.7-22.2l19.6-0.2l13-2.7l18.5,18.8l-2.2-14.3
		l14.8-3.5l15.5,2.7l14.4-6.6L461,155l-21.5-6.5l2.2-14.1l-6.3-11.3l8.5-2.8l40.1-31.5l-35.6,15.2l-5.1-6.4l0.4,15.1l-14.8,3.5
		l3.5,14.8c0,0-1.9,17.3-0.2,20.9c1.6,3.6-10,6.8-18.6-2.4c-8.6-9.2-15.6,1.7-15.6,1.7l-18.7,2l-1.5-8L407,135l-31.7,4.7l-1-9.4
		l-15.8-5.9l-4.6-7.7l-10-5.2l20.8-11.7L380,78.5l-6.1-3.8l-20.3,22.4l-13.5,4l-10.7,29l-21.7-2.1l-12.6-22.6l-18.2,0.7
		c0,0-6.4-6.9,2.1-9.7c8.5-2.8,6-8.2,6-8.2l-17.6,7l-17.1-6.3c0,0-9.2-3.4-13.8,0.9C232,94,232,94,232,94l-8.1-10.5l-5.1,5.6
		l-25.9,5.4l-3-16.1l-12,0c0,0-0.7-18.2-18.3-23.3l2.7,13l-22.8,5l-0.7-6.2c0,0-4.9,1.2-4.6,4.3c0.3,3.1,0.2,7.6,0.2,7.6
		s-15.5-3.4-17.2-5.6c-1.6,3.1-8,12.8-8,12.8s-11.8-4.4-7-17.6c4.9-13.2,11.7-3.2,11.7-3.2l8.2-5.9l4.3,4.6l5.9-3.8l-8.2-6.1l10.8-5
		l3.9,1.5l5.7-11.4l5.9,8.2l3.3-4.8l14.3,9.8l12,0l3.6,10.3l7.2-3.3l-5.8-12.6c0,0-12.5,1.4-18.4-6.8c-5.9-8.2-12-12-12-12l29.7,0.6
		c0,0,9.3-13,14.4-6.6c5.1,6.4,13.8-0.9,13.8-0.9l-22.4-8.3l-17.7-0.6l-5.1,5.6l-9.4-11c0,0,12.3-8.9,16.6-4.3C179,7,179,7,179,7
		l16.7-8.8l-21.2-3.4l17.6-7l23.4,5.7l6.1,3.8l3.6-1.7l14.2,14.2l13.2,4.9l6.5-9.5L237,0l-0.3-3.1c0,0-27.2-11.6-26.9-20.4
		c0.3-8.7,19.3-1.8,20-1.6l-18.1-15.7l19.4-7.8c0,0-29.9-8.1-34.2-12.7c-4.3-4.6-3.3-7.2-3.3-7.2S200-90,211.8-85.6
		c11.8,4.4,11.8,4.4,11.8,4.4l9.6,6.5l-10.6-15.9c0,0,18-8.3,25-2.7c6.9,5.6,8.2,6,8.2,6l0.8-10.2l-27.3-7.1l-28.2,7.5l0.8-10.2
		l4.6-4.3l-13-9.3l15.6-1.7c0,0,2.6-11,12.5-1.4c9.9,9.7,22.2,12.7,22.2,12.7l15,4l13.3,0.4l25.4,12.4l6.8,10l-9.6,5l-5,2.6l-3.9,2
		l3.5-0.7l9.7-2.1h0l4.7-1l10.6,3.9l3.8,1.4l6.6,2.4l4,1.5l-4.2,6.4l-9.3,14l3.5,2.8l14.3-19.8l1-1.4l0.3,0.9l7.8,21.5l8.4,1.6
		l-7.5-16.2l23.8,4.3c0,0,11.9,16.4,19.8,19.3s17.6-7,17.6-7l0.1-4.4c0,0,20.2,6,23.1,14.5l1.9-5.3l-13.4-12.4l-16.8-3.2l-11.5,10.7
		l-17.6-17l-20.7-4.7l-4.5-5.6l-0.6-0.8l-17.1-7.5l-4.8-2.1l-7.6,0.2l-9.4-11l23.8,6.6l8.8,2.4l-6.9-5.6l-0.4-0.1L302-98.6
		c0.2,0.2,3.3,2.7-1.3-0.5c-4.8-3.3-1.8,0.8-6.6-2.4c-4.8-3.3-5.3-1.9-5.3-1.9l-14.7-12.9l-9,4.1l-17.1-6.3l-5.9,3.8l-5.8-12.6
		l-9.6-6.5l7.4-7.7l-4.6-7.7l3.9-10.5l7.6,11.8l6.7-2c0,0-4.5,16.3,6.5,18.9c11,2.6,19.8-9.1,19.8-9.1l-6.3-23.3l-17.1-6.3l4.2-7.4
		l3.9,1.5l1.6-9.2l1.1-6.2l8,6.2l10.6,8.2l-0.3,8.9l12.3,31.5l7-10.9l6.4,6.9l4.7-8.7l-21.1-7.8c0,0-2.3-9.8,14.4-18.6l8.6,9.2
		l6.6,2.4l4.2,21l4.2-19.4l15.9,1.4c0,0,13.3,0.4,8.4,13.6c-4.9,13.2-22.7,29-22.7,29l0.2,7.6l22-18.8l7-10.9c0,0,6.6,2.4,5.5,9.5
		c-1.1,7.1-3.1,12.3-3.1,12.3l22.5,3.9l-4.6-7.7l-7.1-1.1l-12.5-39.1l11-9.4l35.9-12.1l13-0.8l0.8,0v0l0.4,27.1l-3.8,6.1l6.1,3.7
		l3.9,29.9l4.1,9l-2.7-53.4c0,0-1.5-17.7,2.3-22.4c0.8-1,1.9-1.4,3.3-0.9c0.6,0.2,1.3,0.5,1.8,0.9c6.7,4.1,10,15.5,10,15.5l5.4-14.5
		l9.1-1l12.8-1.4l0.3,1.4l0.8,3.5c0,0,16.3,4.5,16.1,9c-0.2,4.4-4.5,16.3-3.8,34.5c0.7,18.2-30,48.7-30,48.7l22,5.2l-4.1-9
		l10.6-12.5l9.6-21.9c0,0,19.4,4.2,18.3,11.3c-1.1,7.1,5.1-5.6,5.1-5.6l16.7,19.7l3.8-6.1l-11.1-14.6c0,0-17.1-6.3-28.8-15.2
		c-11.7-8.8-1.6-32-1.6-32l-6.6-14.4l-1.4-0.5h75.5l0.7,8.8l4.4,0.1l2.7,13l9.2-8.6c0,0,11.5,1.3,13-2.7c1.5-3.9,1.5-3.9,1.5-3.9
		s-19.5,2.7-23.9-6.7H660l2.4,3.2c0,0,0-1.2-0.2-3.2H698l5.1,6.3l-0.4,13.3l6.6,2.4l2.2-14.1l-5.5-7.9H943.9z"/>
	<polygon class="st0" points="1033.3,-185.3 1032.9,-185.3 1032.9,-185.4 	"/>
	<path class="st0" d="M321.6-62L358.4-75l-3.6-11.5l-0.1-13.3c0,0-20.9,0.5-25.7,15.2S321.6-62,321.6-62z"/>
	<polygon class="st0" points="290.9,-80.9 288.3,-72.9 289.7,-54.7 312.8,-57.5 318.5,-74.8 306.5,-74.3 	"/>
	<polygon class="st0" points="74.2,440.4 65.8,452.5 73.4,465.3 85.8,450.2 	"/>
	<path class="st0" d="M109,658.7c0,0-15.1,1-17.7,13.4c-2.6,12.4,23.1-2.8,23.1-2.8L109,658.7z"/>
</g>
<path class="st1" d="M-280.4,601.5c-7.2,0-15,5-13,15.5c2,11.1,13,19.4,13,19.4s11.6-8.8,13-19.4
	C-266,606.4-273.2,601.5-280.4,601.5z M-280.5,622.3c-3.8,0-6.8-3.1-6.8-6.8s3.1-6.8,6.8-6.8c3.8,0,6.8,3.1,6.8,6.8
	S-276.7,622.3-280.5,622.3z"/>
<path class="st1" d="M-391.2,663.6c-5.1,0-10.7,3.5-9.3,11.1c1.5,7.9,9.3,13.9,9.3,13.9s8.3-6.3,9.3-13.9
	C-380.9,667-386.1,663.6-391.2,663.6z M-391.3,678.3c-2.7,0-4.9-2.2-4.9-4.9c0-2.7,2.2-4.9,4.9-4.9s4.9,2.2,4.9,4.9
	C-386.4,676.2-388.6,678.3-391.3,678.3z"/>
<path class="st1" d="M-447.7,491.6c-4.3,0-9,3-7.8,9.3c1.2,6.7,7.8,11.7,7.8,11.7s7-5.3,7.8-11.7
	C-439,494.5-443.4,491.6-447.7,491.6z M-447.8,504c-2.3,0-4.1-1.8-4.1-4.1s1.8-4.1,4.1-4.1c2.3,0,4.1,1.8,4.1,4.1
	S-445.5,504-447.8,504z"/>
<polyline class="st2" points="-447.8,548.6 -447.8,698.5 -339.8,698.5 -280.9,698.5 -280.9,667.5 "/>
<text transform="matrix(1 0 0 1 -411.5889 724.875)" style="fill:#FFFFFF; font-family:'Montserrat-Regular'; font-size:17.993px;">Одда</text>
<text transform="matrix(1 0 0 1 -325.6221 657.9004)" style="fill:#FFFFFF; font-family:'Montserrat-Regular'; font-size:17.993px;">Язик Троля</text>
<text transform="matrix(1 0 0 1 -475.5645 534.9478)" style="fill:#FFFFFF; font-family:'Montserrat-Regular'; font-size:17.993px;">Берген</text>
</svg>
