<?xml version="1.0" encoding="utf-8"?>
<!-- Generator: Adobe Illustrator 23.0.2, SVG Export Plug-In . SVG Version: 6.00 Build 0)  -->
<svg version="1.1" id="Layer_1" xmlns="http://www.w3.org/2000/svg" xmlns:xlink="http://www.w3.org/1999/xlink" x="0px" y="0px"
	 viewBox="0 0 96 96" style="enable-background:new 0 0 96 96;" xml:space="preserve">
<style type="text/css">
	.st0{fill:#FFFFFF;}
	.st1{fill:#5EA89A;}
	.st2{fill:none;stroke:#5EA89A;stroke-width:5;stroke-miterlimit:10;}
</style>
<g>
	<g>
		<path class="st0" d="M48.4,3C37.1,3,24.9,10.8,28,27.3C30.3,39.9,40,50.3,45.2,55c1.8,1.7,4.6,1.7,6.4,0
			c5.3-4.8,15.6-15.5,17.2-27.7C71.1,10.6,59.7,3,48.4,3z M49.4,35.4c-6.8,0.7-12.4-5-11.7-11.7c0.5-5,4.5-9,9.5-9.5
			c6.8-0.7,12.4,5,11.7,11.7C58.4,30.8,54.4,34.9,49.4,35.4z"/>
	</g>
	<g>
		<g>
			<path class="st0" d="M11,94H3.5C2.1,94,1,92.9,1,91.5S2.1,89,3.5,89H11c1.4,0,2.5,1.1,2.5,2.5S12.4,94,11,94z"/>
		</g>
		<g>
			<path class="st0" d="M70.2,94H55.4c-1.4,0-2.5-1.1-2.5-2.5S54,89,55.4,89h14.8c1.4,0,2.5,1.1,2.5,2.5S71.6,94,70.2,94z M40.6,94
				H25.8c-1.4,0-2.5-1.1-2.5-2.5s1.1-2.5,2.5-2.5h14.8c1.4,0,2.5,1.1,2.5,2.5S42,94,40.6,94z"/>
		</g>
		<g>
			<path class="st0" d="M92.5,94H85c-1.4,0-2.5-1.1-2.5-2.5S83.6,89,85,89h7.5c1.4,0,2.5,1.1,2.5,2.5S93.9,94,92.5,94z"/>
		</g>
	</g>
</g>
<g>
	<g>
		<circle class="st1" cx="-155.9" cy="-125.8" r="6.9"/>
	</g>
	<g>
		<path class="st1" d="M-166.9-89.5h-9.3c-1.7,0-3.1-1.4-3.1-3.1v-16.6c0-1.7,1.4-3.1,3.1-3.1h9.3c1.7,0,3.1,1.4,3.1,3.1v16.6
			C-163.7-90.9-165.1-89.5-166.9-89.5z"/>
	</g>
	<g>
		<path class="st1" d="M-182.6-40.3c-4.9,0-8.1-0.7-8.4-0.7c-1.3-0.3-2.2-1.6-1.9-3c0.3-1.3,1.6-2.2,3-1.9l0,0
			c1.2,0.3,29,6,54.7-22.3c16.5-18.1,34.4-23.4,35.1-23.6c1.3-0.4,2.7,0.4,3.1,1.7c0.4,1.3-0.4,2.7-1.7,3.1
			c-0.2,0-17.3,5.1-32.8,22.2C-150.8-43.7-171.4-40.3-182.6-40.3z"/>
	</g>
	<g>
		<path class="st1" d="M-166-43.7c-1.4,0-2.5-1.1-2.5-2.5v-36.4c0-1.4,1.1-2.5,2.5-2.5h23.8c0.8,0,1.5,0.4,2,1
			c0.5,0.6,0.6,1.4,0.5,2.1l-6.4,25.7c-0.3,1.3-1.7,2.2-3,1.8c-1.3-0.3-2.2-1.7-1.8-3l5.6-22.6h-18.1v33.9
			C-163.5-44.8-164.6-43.7-166-43.7z"/>
	</g>
	<g>
		<path class="st1" d="M-155.6-80.2c-0.1,0-0.2,0-0.3,0c-1.4-0.1-2.4-1.3-2.2-2.7c0.1-1.3,0-18.4,0-29.6c0-1,0.5-1.8,1.4-2.3
			c0.9-0.4,1.9-0.3,2.6,0.3l13.2,10.5h12c1.4,0,2.5,1.1,2.5,2.5s-1.1,2.5-2.5,2.5h-12.8c-0.6,0-1.1-0.2-1.6-0.5l-9.8-7.8
			c0,9.1,0.1,23.7,0,24.9C-153.2-81.1-154.3-80.2-155.6-80.2z"/>
	</g>
	<g>
		<path class="st1" d="M-124.2-73c-1.1,0-2.1-0.7-2.4-1.8l-12-39.8c-0.4-1.3,0.3-2.7,1.7-3.1c1.3-0.4,2.7,0.3,3.1,1.7l12,39.8
			c0.4,1.3-0.3,2.7-1.7,3.1C-123.7-73-123.9-73-124.2-73z"/>
	</g>
</g>
<path class="st1" d="M214.2-50c-0.3,0-0.6-0.1-0.9-0.2l-31.7-12.7L155-50.2c-0.7,0.3-1.5,0.3-2.2-0.1L123.1-67
	c-0.7-0.4-1.1-1-1.2-1.8c-0.1-0.7,0.1-1.5,0.6-2l23.2-24.7c0.7-0.7,1.8-1,2.7-0.6l16.5,6.9l16.5-6.9c0.6-0.2,1.3-0.2,1.9,0l19.6,8
	c0.6,0.3,1.1,0.8,1.4,1.4l12.3,33.4c0.3,0.9,0.1,1.9-0.6,2.6C215.5-50.2,214.8-50,214.2-50z M128.2-69.7l25.9,14.5l26.4-12.5
	c0.6-0.3,1.3-0.3,2-0.1l27.5,11L200-84l-17.7-7.2l-16.5,6.9c-0.6,0.2-1.3,0.2-1.9,0l-15.9-6.6L128.2-69.7z"/>
<g>
	<path class="st1" d="M154.4-51.1c-0.3,0-0.5,0-0.8-0.1c-1.3-0.4-2-1.8-1.5-3.1l10.9-31.9c0.4-1.3,1.8-2,3.1-1.5
		c1.3,0.4,2,1.8,1.5,3.1l-10.9,31.9C156.3-51.7,155.4-51.1,154.4-51.1z"/>
</g>
<g>
	<path class="st1" d="M181.9-62.7C181.9-62.7,181.9-62.7,181.9-62.7c-1.4,0-2.5-1.1-2.4-2.5l0.4-26.5c0-1.3,1.1-2.4,2.4-2.4
		c0,0,0,0,0,0c1.3,0,2.4,1.1,2.4,2.5l-0.4,26.5C184.4-63.8,183.3-62.7,181.9-62.7z"/>
</g>
<g>
	<circle class="st1" cx="168.7" cy="-133.9" r="4.5"/>
</g>
<path class="st1" d="M172.6-101h-7.8c-0.6,0-1.1-0.5-1.1-1.1v-20.8c0-0.6,0.5-1.1,1.1-1.1h7.8c0.6,0,1.1,0.5,1.1,1.1v20.8
	C173.7-101.5,173.2-101,172.6-101z"/>
<line class="st2" x1="160.2" y1="-124" x2="173.7" y2="-124"/>
</svg>
