<?xml version="1.0" encoding="utf-8"?>
<!-- Generator: Adobe Illustrator 23.0.2, SVG Export Plug-In . SVG Version: 6.00 Build 0)  -->
<svg version="1.1" id="Layer_1" xmlns="http://www.w3.org/2000/svg" xmlns:xlink="http://www.w3.org/1999/xlink" x="0px" y="0px"
	 viewBox="0 0 260 248" style="enable-background:new 0 0 260 248;" xml:space="preserve">
<style type="text/css">
	.st0{fill:#F2F2F2;}
	.st1{opacity:0.6;}
	.st2{fill:#FFFFFF;}
</style>
<g>
	<path class="st0" d="M195.6,116.5c-7.2,0-15,5-13,15.5c2,11.1,13,19.4,13,19.4s11.6-8.8,13-19.4C210,121.4,202.8,116.5,195.6,116.5
		z M195.5,137.3c-3.8,0-6.8-3.1-6.8-6.8s3.1-6.8,6.8-6.8c3.8,0,6.8,3.1,6.8,6.8S199.3,137.3,195.5,137.3z"/>
</g>
<g>
	<path class="st0" d="M84.8,178.6c-5.1,0-10.7,3.5-9.3,11.1c1.5,7.9,9.3,13.9,9.3,13.9s8.3-6.3,9.3-13.9
		C95.1,182,89.9,178.6,84.8,178.6z M84.7,193.3c-2.7,0-4.9-2.2-4.9-4.9c0-2.7,2.2-4.9,4.9-4.9c2.7,0,4.9,2.2,4.9,4.9
		C89.6,191.2,87.4,193.3,84.7,193.3z"/>
</g>
<g>
	<path class="st0" d="M28.3,6.6c-4.3,0-9,3-7.8,9.3c1.2,6.7,7.8,11.7,7.8,11.7s7-5.3,7.8-11.7C37,9.5,32.6,6.6,28.3,6.6z M28.2,19
		c-2.3,0-4.1-1.8-4.1-4.1s1.8-4.1,4.1-4.1s4.1,1.8,4.1,4.1S30.5,19,28.2,19z"/>
</g>
<g class="st1">
	<path class="st2" d="M195.1,214.5h-2c-0.6,0-1-0.4-1-1s0.4-1,1-1h1c0-0.6,0.4-1,1-1s1,0.4,1,1v1
		C196.1,214.1,195.7,214.5,195.1,214.5z M188.2,214.5h-3c-0.6,0-1-0.4-1-1s0.4-1,1-1h3c0.6,0,1,0.4,1,1S188.7,214.5,188.2,214.5z
		 M180.2,214.5h-3c-0.6,0-1-0.4-1-1s0.4-1,1-1h3c0.6,0,1,0.4,1,1S180.7,214.5,180.2,214.5z M173.2,214.5h-3c-0.6,0-1-0.4-1-1
		s0.4-1,1-1h3c0.6,0,1,0.4,1,1S173.7,214.5,173.2,214.5z M165.2,214.5h-3c-0.6,0-1-0.4-1-1s0.4-1,1-1h3c0.6,0,1,0.4,1,1
		S165.7,214.5,165.2,214.5z M157.2,214.5h-3c-0.6,0-1-0.4-1-1s0.4-1,1-1h3c0.6,0,1,0.4,1,1S157.7,214.5,157.2,214.5z M150.2,214.5
		h-3c-0.6,0-1-0.4-1-1s0.4-1,1-1h3c0.6,0,1,0.4,1,1S150.7,214.5,150.2,214.5z M142.2,214.5h-3c-0.6,0-1-0.4-1-1s0.4-1,1-1h3
		c0.6,0,1,0.4,1,1S142.7,214.5,142.2,214.5z M134.2,214.5h-3c-0.6,0-1-0.4-1-1s0.4-1,1-1h3c0.6,0,1,0.4,1,1S134.7,214.5,134.2,214.5
		z M127.2,214.5h-3c-0.6,0-1-0.4-1-1s0.4-1,1-1h3c0.6,0,1,0.4,1,1S127.7,214.5,127.2,214.5z M119.2,214.5h-3c-0.6,0-1-0.4-1-1
		s0.4-1,1-1h3c0.6,0,1,0.4,1,1S119.7,214.5,119.2,214.5z M111.2,214.5h-3c-0.6,0-1-0.4-1-1s0.4-1,1-1h3c0.6,0,1,0.4,1,1
		S111.7,214.5,111.2,214.5z M104.2,214.5h-3c-0.6,0-1-0.4-1-1s0.4-1,1-1h3c0.6,0,1,0.4,1,1S104.7,214.5,104.2,214.5z M96.2,214.5h-3
		c-0.6,0-1-0.4-1-1s0.4-1,1-1h3c0.6,0,1,0.4,1,1S96.7,214.5,96.2,214.5z M88.2,214.5h-3c-0.6,0-1-0.4-1-1s0.4-1,1-1h3
		c0.6,0,1,0.4,1,1S88.7,214.5,88.2,214.5z M81.2,214.5h-3c-0.6,0-1-0.4-1-1s0.4-1,1-1h3c0.6,0,1,0.4,1,1S81.7,214.5,81.2,214.5z
		 M73.2,214.5h-3c-0.6,0-1-0.4-1-1s0.4-1,1-1h3c0.6,0,1,0.4,1,1S73.7,214.5,73.2,214.5z M65.2,214.5h-3c-0.6,0-1-0.4-1-1s0.4-1,1-1
		h3c0.6,0,1,0.4,1,1S65.8,214.5,65.2,214.5z M58.2,214.5h-3c-0.6,0-1-0.4-1-1s0.4-1,1-1h3c0.6,0,1,0.4,1,1S58.8,214.5,58.2,214.5z
		 M50.2,214.5h-3c-0.6,0-1-0.4-1-1s0.4-1,1-1h3c0.6,0,1,0.4,1,1S50.8,214.5,50.2,214.5z M42.2,214.5h-3c-0.6,0-1-0.4-1-1s0.4-1,1-1
		h3c0.6,0,1,0.4,1,1S42.8,214.5,42.2,214.5z M35.2,214.5h-3c-0.6,0-1-0.4-1-1s0.4-1,1-1h3c0.6,0,1,0.4,1,1S35.8,214.5,35.2,214.5z
		 M28.2,213.5c-0.6,0-1-0.4-1-1v-3c0-0.6,0.4-1,1-1s1,0.4,1,1v3C29.2,213.1,28.8,213.5,28.2,213.5z M195.1,209.5c-0.6,0-1-0.4-1-1
		v-3c0-0.6,0.4-1,1-1s1,0.4,1,1v3C196.1,209.1,195.7,209.5,195.1,209.5z M28.2,205.5c-0.6,0-1-0.4-1-1v-3c0-0.6,0.4-1,1-1s1,0.4,1,1
		v3C29.2,205.1,28.8,205.5,28.2,205.5z M195.1,201.5c-0.6,0-1-0.4-1-1v-3c0-0.6,0.4-1,1-1s1,0.4,1,1v3
		C196.1,201.1,195.7,201.5,195.1,201.5z M28.2,198.5c-0.6,0-1-0.4-1-1v-3c0-0.6,0.4-1,1-1s1,0.4,1,1v3
		C29.2,198.1,28.8,198.5,28.2,198.5z M195.1,193.5c-0.6,0-1-0.4-1-1v-3c0-0.6,0.4-1,1-1s1,0.4,1,1v3
		C196.1,193.1,195.7,193.5,195.1,193.5z M28.2,190.5c-0.6,0-1-0.4-1-1v-3c0-0.6,0.4-1,1-1s1,0.4,1,1v3
		C29.2,190.1,28.8,190.5,28.2,190.5z M195.1,186.5c-0.6,0-1-0.4-1-1v-3c0-0.6,0.4-1,1-1s1,0.4,1,1v3
		C196.1,186.1,195.7,186.5,195.1,186.5z M28.2,182.5c-0.6,0-1-0.4-1-1v-3c0-0.6,0.4-1,1-1s1,0.4,1,1v3
		C29.2,182.1,28.8,182.5,28.2,182.5z M28.2,175.5c-0.6,0-1-0.4-1-1v-3c0-0.6,0.4-1,1-1s1,0.4,1,1v3
		C29.2,175.1,28.8,175.5,28.2,175.5z M28.2,167.5c-0.6,0-1-0.4-1-1v-3c0-0.6,0.4-1,1-1s1,0.4,1,1v3
		C29.2,167.1,28.8,167.5,28.2,167.5z M28.2,159.5c-0.6,0-1-0.4-1-1v-3c0-0.6,0.4-1,1-1s1,0.4,1,1v3
		C29.2,159.1,28.8,159.5,28.2,159.5z M28.2,152.5c-0.6,0-1-0.4-1-1v-3c0-0.6,0.4-1,1-1s1,0.4,1,1v3
		C29.2,152.1,28.8,152.5,28.2,152.5z M28.2,144.5c-0.6,0-1-0.4-1-1v-3c0-0.6,0.4-1,1-1s1,0.4,1,1v3
		C29.2,144.1,28.8,144.5,28.2,144.5z M28.2,136.5c-0.6,0-1-0.4-1-1v-3c0-0.6,0.4-1,1-1s1,0.4,1,1v3
		C29.2,136.1,28.8,136.5,28.2,136.5z M28.2,129.5c-0.6,0-1-0.4-1-1v-3c0-0.6,0.4-1,1-1s1,0.4,1,1v3
		C29.2,129.1,28.8,129.5,28.2,129.5z M28.2,121.5c-0.6,0-1-0.4-1-1v-3c0-0.6,0.4-1,1-1s1,0.4,1,1v3
		C29.2,121.1,28.8,121.5,28.2,121.5z M28.2,113.5c-0.6,0-1-0.4-1-1v-3c0-0.6,0.4-1,1-1s1,0.4,1,1v3
		C29.2,113.1,28.8,113.5,28.2,113.5z M28.2,106.5c-0.6,0-1-0.4-1-1v-3c0-0.6,0.4-1,1-1s1,0.4,1,1v3
		C29.2,106.1,28.8,106.5,28.2,106.5z M28.2,98.5c-0.6,0-1-0.4-1-1v-3c0-0.6,0.4-1,1-1s1,0.4,1,1v3C29.2,98.1,28.8,98.5,28.2,98.5z
		 M28.2,90.5c-0.6,0-1-0.4-1-1v-3c0-0.6,0.4-1,1-1s1,0.4,1,1v3C29.2,90.1,28.8,90.5,28.2,90.5z M28.2,83.6c-0.6,0-1-0.4-1-1v-3
		c0-0.6,0.4-1,1-1s1,0.4,1,1v3C29.2,83.1,28.8,83.6,28.2,83.6z M28.2,75.6c-0.6,0-1-0.4-1-1v-3c0-0.6,0.4-1,1-1s1,0.4,1,1v3
		C29.2,75.1,28.8,75.6,28.2,75.6z M28.2,67.6c-0.6,0-1-0.4-1-1v-3c0-0.6,0.4-1,1-1s1,0.4,1,1v3C29.2,67.1,28.8,67.6,28.2,67.6z"/>
</g>
<g>
	<path class="st2" d="M68.7,239.1c-1-0.6-1.8-1.3-2.4-2.3c-0.6-1-0.9-2.1-0.9-3.3c0-1.2,0.3-2.3,0.9-3.3c0.6-1,1.4-1.7,2.4-2.3
		s2.1-0.8,3.4-0.8c1.2,0,2.4,0.3,3.4,0.8s1.8,1.3,2.4,2.3c0.6,1,0.9,2.1,0.9,3.3c0,1.2-0.3,2.3-0.9,3.3c-0.6,1-1.4,1.7-2.4,2.3
		s-2.1,0.8-3.4,0.8C70.8,240,69.7,239.7,68.7,239.1z M74.8,238.1c0.8-0.5,1.4-1.1,1.9-1.9c0.5-0.8,0.7-1.7,0.7-2.7
		c0-1-0.2-1.9-0.7-2.7s-1.1-1.4-1.9-1.9s-1.7-0.7-2.7-0.7c-1,0-1.9,0.2-2.7,0.7s-1.4,1.1-1.9,1.9c-0.5,0.8-0.7,1.7-0.7,2.7
		c0,1,0.2,1.9,0.7,2.7c0.5,0.8,1.1,1.4,1.9,1.9c0.8,0.4,1.7,0.7,2.7,0.7C73.1,238.8,74,238.6,74.8,238.1z"/>
	<path class="st2" d="M90.5,238.8v3.4h-1.2v-2.3h-8.5v2.3h-1.2v-3.4h0.5c0.6,0,1.1-0.5,1.3-1.4c0.2-0.9,0.4-2.2,0.5-3.8l0.1-3.2h7
		v8.3H90.5z M82.7,237c-0.2,0.9-0.5,1.5-0.9,1.8h5.9v-7.2h-4.6l-0.1,2.1C83,235,82.9,236.1,82.7,237z"/>
	<path class="st2" d="M102.2,238.8v3.4H101v-2.3h-8.5v2.3h-1.2v-3.4h0.5c0.6,0,1.1-0.5,1.3-1.4c0.2-0.9,0.4-2.2,0.5-3.8l0.1-3.2h7
		v8.3H102.2z M94.4,237c-0.2,0.9-0.5,1.5-0.9,1.8h5.9v-7.2h-4.6l-0.1,2.1C94.7,235,94.6,236.1,94.4,237z"/>
	<path class="st2" d="M110.8,231.3c0.7,0.6,1,1.5,1,2.7v5.9h-1.2v-1.5c-0.3,0.5-0.7,0.9-1.3,1.2c-0.6,0.3-1.2,0.4-2,0.4
		c-1.1,0-1.9-0.3-2.5-0.8s-0.9-1.2-0.9-2c0-0.8,0.3-1.5,0.9-1.9c0.6-0.5,1.5-0.7,2.8-0.7h3V234c0-0.8-0.2-1.4-0.7-1.9
		s-1.1-0.6-2-0.6c-0.6,0-1.2,0.1-1.7,0.3s-1,0.5-1.4,0.8l-0.6-1c0.5-0.4,1.1-0.7,1.7-0.9c0.7-0.2,1.4-0.3,2.1-0.3
		C109.2,230.3,110.1,230.6,110.8,231.3z M109.3,238.5c0.5-0.3,0.9-0.8,1.2-1.4v-1.5h-3c-1.6,0-2.4,0.6-2.4,1.7c0,0.6,0.2,1,0.6,1.3
		c0.4,0.3,1,0.5,1.8,0.5C108.2,239,108.8,238.8,109.3,238.5z"/>
</g>
<g>
	<path class="st2" d="M161.4,160.3v12.6h-1.3v-3.8h-3.8c-0.2,0-0.4,0-0.7,0l-2.6,3.9h-1.4l2.9-4.1c-0.9-0.3-1.6-0.8-2.1-1.5
		c-0.5-0.7-0.7-1.6-0.7-2.6c0-1.4,0.4-2.5,1.3-3.3c0.9-0.8,2.1-1.2,3.6-1.2H161.4z M153.8,167.1c0.6,0.6,1.5,0.8,2.7,0.8h3.7v-6.5
		h-3.5c-1.2,0-2.1,0.3-2.7,0.8c-0.6,0.6-1,1.4-1,2.4C152.9,165.8,153.2,166.6,153.8,167.1z"/>
	<path class="st2" d="M171.5,168.8c0.4,0.4,0.5,0.9,0.5,1.4s-0.2,1-0.6,1.5c-0.4,0.4-0.9,0.8-1.5,1c-0.6,0.2-1.4,0.4-2.1,0.4
		c-0.7,0-1.4-0.1-2-0.3c-0.7-0.2-1.2-0.5-1.7-0.9l0.4-1c0.4,0.3,0.9,0.6,1.5,0.8c0.6,0.2,1.2,0.3,1.7,0.3c0.9,0,1.6-0.2,2.2-0.5
		c0.6-0.3,0.8-0.8,0.8-1.3c0-0.5-0.2-0.9-0.7-1.2c-0.5-0.3-1.1-0.4-1.9-0.4h-1.6v-0.9h1.5c0.7,0,1.3-0.1,1.7-0.4
		c0.4-0.3,0.6-0.6,0.6-1.1c0-0.5-0.2-0.9-0.7-1.2c-0.5-0.3-1.1-0.4-1.9-0.4c-1,0-2,0.3-3,0.8l-0.4-1c1.1-0.6,2.3-0.9,3.5-0.9
		c0.7,0,1.4,0.1,2,0.3c0.6,0.2,1,0.5,1.4,0.9c0.3,0.4,0.5,0.8,0.5,1.3c0,0.5-0.2,0.9-0.5,1.3s-0.8,0.6-1.3,0.8
		C170.6,168.1,171.2,168.4,171.5,168.8z"/>
	<path class="st2" d="M175,163.4h1.3v7.5l6.3-7.5h1.1v9.5h-1.3v-7.5l-6.3,7.5H175V163.4z"/>
	<path class="st2" d="M190.8,168.7h-2.2v4.2h-1.3v-9.5h1.3v4.2h2.2l3.3-4.2h1.4l-3.7,4.6l4,4.9h-1.5L190.8,168.7z"/>
	<path class="st2" d="M211.1,161.5h-4.4v11.4h-1.3v-11.4h-4.4v-1.2h10.2V161.5z"/>
	<path class="st2" d="M220.1,164c0.7,0.4,1.3,1,1.7,1.7c0.4,0.7,0.6,1.6,0.6,2.5c0,0.9-0.2,1.8-0.6,2.5c-0.4,0.7-1,1.3-1.7,1.7
		s-1.5,0.6-2.4,0.6c-0.8,0-1.5-0.2-2.1-0.5c-0.6-0.3-1.1-0.8-1.5-1.4v5.3h-1.3v-13h1.2v1.9c0.4-0.6,0.9-1.1,1.5-1.4s1.3-0.5,2.1-0.5
		C218.6,163.4,219.4,163.6,220.1,164z M219.4,171.4c0.5-0.3,1-0.7,1.3-1.3c0.3-0.6,0.5-1.2,0.5-1.9s-0.2-1.4-0.5-1.9
		c-0.3-0.6-0.7-1-1.3-1.3c-0.5-0.3-1.1-0.5-1.8-0.5c-0.7,0-1.3,0.2-1.8,0.5c-0.5,0.3-1,0.7-1.3,1.3c-0.3,0.6-0.5,1.2-0.5,1.9
		s0.2,1.4,0.5,1.9c0.3,0.6,0.7,1,1.3,1.3c0.5,0.3,1.1,0.5,1.8,0.5C218.3,171.9,218.9,171.7,219.4,171.4z"/>
	<path class="st2" d="M226.6,172.4c-0.7-0.4-1.3-1-1.7-1.7s-0.6-1.6-0.6-2.5c0-0.9,0.2-1.8,0.6-2.5s1-1.3,1.7-1.7
		c0.7-0.4,1.6-0.6,2.5-0.6c0.9,0,1.7,0.2,2.5,0.6c0.7,0.4,1.3,1,1.7,1.7s0.6,1.6,0.6,2.5c0,0.9-0.2,1.8-0.6,2.5s-1,1.3-1.7,1.7
		c-0.7,0.4-1.6,0.6-2.5,0.6C228.2,173,227.4,172.8,226.6,172.4z M230.9,171.4c0.5-0.3,1-0.7,1.3-1.3s0.5-1.2,0.5-1.9
		s-0.2-1.4-0.5-1.9s-0.7-1-1.3-1.3c-0.5-0.3-1.1-0.5-1.8-0.5s-1.3,0.2-1.8,0.5c-0.5,0.3-1,0.7-1.3,1.3c-0.3,0.6-0.5,1.2-0.5,1.9
		s0.2,1.4,0.5,1.9c0.3,0.6,0.7,1,1.3,1.3c0.5,0.3,1.1,0.5,1.8,0.5S230.4,171.7,230.9,171.4z"/>
	<path class="st2" d="M244.3,163.4v9.5H243v-8.3h-4.5l-0.1,2.3c-0.1,2-0.3,3.5-0.7,4.5c-0.4,1.1-1,1.6-1.9,1.6c-0.3,0-0.6,0-0.9-0.1
		l0.1-1.1c0.2,0,0.4,0.1,0.5,0.1c0.5,0,0.9-0.2,1.1-0.7c0.3-0.5,0.4-1,0.5-1.7c0.1-0.7,0.2-1.6,0.2-2.7l0.2-3.4H244.3z"/>
	<path class="st2" d="M255.2,163.4v9.5h-1.2v-3.1h-3h-0.4l-2.2,3.1h-1.4l2.4-3.3c-0.7-0.2-1.3-0.6-1.7-1c-0.4-0.5-0.6-1.1-0.6-1.9
		c0-1.1,0.4-1.9,1.1-2.4s1.7-0.8,3-0.8H255.2z M251.2,168.8h2.9v-4.2h-2.8c-1.8,0-2.8,0.7-2.8,2.1
		C248.5,168.1,249.4,168.8,251.2,168.8z"/>
</g>
<g>
	<path class="st2" d="M2.6,37.4h9.2v1.1H3.9v4.1H8c1.5,0,2.6,0.3,3.4,0.9c0.8,0.6,1.2,1.5,1.2,2.7c0,1.2-0.4,2.1-1.3,2.8
		c-0.8,0.6-2,1-3.6,1H2.6V37.4z M7.7,48.9c1.2,0,2-0.2,2.6-0.7c0.6-0.4,0.9-1.1,0.9-2c0-0.9-0.3-1.5-0.9-1.9s-1.5-0.6-2.7-0.6H3.9
		v5.2H7.7z"/>
	<path class="st2" d="M23.6,45.6h-7.9c0.1,1,0.5,1.8,1.1,2.4c0.7,0.6,1.5,0.9,2.6,0.9c0.6,0,1.1-0.1,1.6-0.3
		c0.5-0.2,0.9-0.5,1.3-0.9l0.7,0.8c-0.4,0.5-0.9,0.9-1.6,1.2c-0.6,0.3-1.3,0.4-2.1,0.4c-1,0-1.8-0.2-2.6-0.6c-0.8-0.4-1.3-1-1.8-1.7
		c-0.4-0.7-0.6-1.6-0.6-2.5s0.2-1.8,0.6-2.5c0.4-0.7,1-1.3,1.7-1.7c0.7-0.4,1.5-0.6,2.4-0.6c0.9,0,1.7,0.2,2.4,0.6s1.2,1,1.6,1.7
		c0.4,0.7,0.6,1.6,0.6,2.5L23.6,45.6z M16.7,42.4c-0.6,0.6-1,1.3-1.1,2.3h6.7c-0.1-0.9-0.4-1.7-1.1-2.3S20,41.5,19,41.5
		C18.1,41.5,17.4,41.8,16.7,42.4z"/>
	<path class="st2" d="M33.7,41c0.7,0.4,1.3,1,1.7,1.7c0.4,0.7,0.6,1.6,0.6,2.5c0,0.9-0.2,1.8-0.6,2.5c-0.4,0.7-1,1.3-1.7,1.7
		S32.2,50,31.3,50c-0.8,0-1.5-0.2-2.1-0.5c-0.6-0.3-1.1-0.8-1.5-1.4v5.3h-1.3v-13h1.2v1.9c0.4-0.6,0.9-1.1,1.5-1.4
		c0.6-0.3,1.3-0.5,2.1-0.5C32.2,40.4,33,40.6,33.7,41z M33,48.4c0.5-0.3,1-0.7,1.3-1.3c0.3-0.6,0.5-1.2,0.5-1.9s-0.2-1.4-0.5-1.9
		c-0.3-0.6-0.7-1-1.3-1.3c-0.5-0.3-1.1-0.5-1.8-0.5c-0.7,0-1.3,0.2-1.8,0.5c-0.5,0.3-1,0.7-1.3,1.3c-0.3,0.6-0.5,1.2-0.5,1.9
		s0.2,1.4,0.5,1.9c0.3,0.6,0.7,1,1.3,1.3c0.5,0.3,1.1,0.5,1.8,0.5C31.9,48.9,32.5,48.8,33,48.4z"/>
	<path class="st2" d="M45.5,41.6h-5.4v8.3h-1.3v-9.5h6.7V41.6z"/>
	<path class="st2" d="M55.2,45.6h-7.9c0.1,1,0.5,1.8,1.1,2.4c0.7,0.6,1.5,0.9,2.6,0.9c0.6,0,1.1-0.1,1.6-0.3
		c0.5-0.2,0.9-0.5,1.3-0.9l0.7,0.8c-0.4,0.5-0.9,0.9-1.6,1.2C52.4,49.9,51.7,50,51,50c-1,0-1.8-0.2-2.6-0.6c-0.8-0.4-1.3-1-1.8-1.7
		C46.2,47,46,46.1,46,45.2s0.2-1.8,0.6-2.5c0.4-0.7,1-1.3,1.7-1.7c0.7-0.4,1.5-0.6,2.4-0.6c0.9,0,1.7,0.2,2.4,0.6s1.2,1,1.6,1.7
		c0.4,0.7,0.6,1.6,0.6,2.5L55.2,45.6z M48.3,42.4c-0.6,0.6-1,1.3-1.1,2.3H54c-0.1-0.9-0.4-1.7-1.1-2.3s-1.4-0.9-2.3-0.9
		C49.7,41.5,48.9,41.8,48.3,42.4z"/>
	<path class="st2" d="M58,40.5h1.3v4.2h6v-4.2h1.3v9.5h-1.3v-4.2h-6v4.2H58V40.5z"/>
</g>
</svg>
