<?xml version="1.0" encoding="utf-8"?>
<!-- Generator: Adobe Illustrator 23.0.2, SVG Export Plug-In . SVG Version: 6.00 Build 0)  -->
<svg version="1.1" baseProfile="tiny" id="Layer_1" xmlns="http://www.w3.org/2000/svg" xmlns:xlink="http://www.w3.org/1999/xlink"
	 x="0px" y="0px" viewBox="0 0 887.3 400.8" xml:space="preserve">
<g>
	<path fill="#FFFFFF" d="M85.6,268.5h25v130h-25v-54h-48v54h-26v-130h26v52h48V268.5z"/>
	<path fill="#FFFFFF" d="M329.9,268.5c12.5,0,23,4.2,31.5,12.6c8.5,8.4,12.8,18.7,12.8,30.9s-4.3,22.5-12.8,30.9
		c-8.5,8.4-19,12.6-31.5,12.6h-22.3v43h-26v-130H329.9z M330.2,332.5c5.4,0,9.9-1.9,13.4-5.6c3.6-3.7,5.3-8.4,5.3-13.9
		c0-5.6-1.8-10.3-5.3-14c-3.6-3.7-8-5.5-13.4-5.5h-22.6v39H330.2z"/>
	<path fill="#FFFFFF" d="M476.1,331.1c11.4,6.6,17.1,16.5,17.1,29.7c0,11-3.9,20.1-11.7,27.1c-7.8,7.1-17.4,10.6-28.8,10.6h-55.2
		v-130h51.3c11.1,0,20.5,3.4,28.1,10.3c7.6,6.9,11.4,15.6,11.4,26.3C488.4,315.8,484.3,324.5,476.1,331.1z M449.6,292.5h-26v29h26
		c4,0,7.4-1.4,10.1-4.1s4-6.2,4-10.4s-1.3-7.6-4-10.4C457.1,293.8,453.7,292.5,449.6,292.5z M453.4,375.5c4.4,0,8-1.5,10.9-4.4
		c2.9-2.9,4.3-6.7,4.3-11.2c0-4.4-1.4-8-4.3-11c-2.9-2.9-6.5-4.4-10.9-4.4h-29.9v31H453.4z"/>
	<path fill="#FFFFFF" d="M544.6,374.5h55v25h-80v-131h79v25h-54v28h49v24h-49V374.5z"/>
	<path fill="#FFFFFF" d="M701.6,268.5v25h-48v105h-26v-130H701.6z"/>
	<path fill="#FFFFFF" d="M728.6,268.5h26v130h-26V268.5z"/>
	<path fill="#FFFFFF" d="M886.6,268.5v130h-26v-45h-14.9l-30.3,45h-27.8l31.8-47.9c-8.3-3-15-8-20.2-15.2s-7.8-15.1-7.8-23.8
		c0-11.9,4.2-22,12.6-30.5c8.4-8.4,18.6-12.6,30.6-12.6L886.6,268.5L886.6,268.5z M834.5,331.5h26.1v-38h-26.1
		c-4.8,0-8.9,1.8-12.3,5.5c-3.4,3.7-5.1,8.1-5.1,13.4s1.7,9.8,5.1,13.5C825.6,329.6,829.7,331.5,834.5,331.5z"/>
	<path fill="#FFFFFF" d="M197.6,259.4c-29.6,0-61.6,20.4-53.6,63.7c8.4,45.5,53.6,79.8,53.6,79.8s47.6-36.1,53.6-79.8
		C257.1,279.5,227.2,259.4,197.6,259.4z M197.4,344.5c-15.5,0-28-12.5-28-28s12.5-28,28-28s28,12.5,28,28S212.8,344.5,197.4,344.5z"
		/>
</g>
<image width="113" height="167" xlink:href="70D2CFE1.png"  transform="matrix(1 0 0 1 0 -0.61)">
</image>
<image width="121" height="57" xlink:href="70D2CFE7.png"  transform="matrix(1 0 0 1 8 180.39)">
</image>
</svg>
