<?xml version="1.0" encoding="utf-8"?>
<!-- Generator: Adobe Illustrator 23.0.2, SVG Export Plug-In . SVG Version: 6.00 Build 0)  -->
<svg version="1.1" id="Layer_1" xmlns="http://www.w3.org/2000/svg" xmlns:xlink="http://www.w3.org/1999/xlink" x="0px" y="0px"
	 viewBox="0 0 32 33" style="enable-background:new 0 0 32 33;" xml:space="preserve">
<style type="text/css">
	.st0{fill:#FFFFFF;}
</style>
<g>
	<g>
		<path class="st0" d="M21.1,32.2H10.6c-5.8,0-10.5-4.7-10.5-10.5V11.2c0-5.8,4.7-10.5,10.5-10.5h10.6c5.8,0,10.5,4.7,10.5,10.5
			v10.6C31.6,27.6,26.9,32.2,21.1,32.2z M10.6,3.5c-4.2,0-7.7,3.4-7.7,7.7v10.6c0,4.2,3.4,7.7,7.7,7.7h10.6c4.2,0,7.7-3.4,7.7-7.7
			V11.2c0-4.2-3.4-7.7-7.7-7.7H10.6z"/>
	</g>
	<g>
		<path class="st0" d="M15.7,23.3c-3.8,0-7-3.1-7-7s3.1-7,7-7s7,3.1,7,7S19.5,23.3,15.7,23.3z M15.7,12.2c-2.3,0-4.2,1.9-4.2,4.2
			s1.9,4.2,4.2,4.2s4.2-1.9,4.2-4.2S18,12.2,15.7,12.2z"/>
	</g>
</g>
<g>
	<g>
		<path d="M-1132.8-70.8h-10.6c-5.8,0-10.5-4.7-10.5-10.5v-10.6c0-5.8,4.7-10.5,10.5-10.5h10.6c5.8,0,10.5,4.7,10.5,10.5v10.6
			C-1122.3-75.5-1127-70.8-1132.8-70.8z M-1143.4-99.5c-4.2,0-7.7,3.4-7.7,7.7v10.6c0,4.2,3.4,7.7,7.7,7.7h10.6
			c4.2,0,7.7-3.4,7.7-7.7v-10.6c0-4.2-3.4-7.7-7.7-7.7H-1143.4z"/>
	</g>
	<g>
		<path d="M-1138.2-75.8c-0.7,0-1.3-0.5-1.4-1.3c-0.1-1.3-1.1-12.6,0-16.7c0.5-1.7,1.5-2.4,2.3-2.6c2.3-0.7,5,1.5,5.5,1.9
			c0.6,0.5,0.6,1.4,0.1,2c-0.5,0.6-1.4,0.6-2,0.1c-0.9-0.8-2.3-1.5-2.9-1.4c-0.2,0.1-0.4,0.5-0.4,0.7c-0.9,3-0.3,12.3,0,15.7
			c0.1,0.8-0.5,1.4-1.3,1.5C-1138.1-75.8-1138.2-75.8-1138.2-75.8z"/>
	</g>
	<g>
		<path d="M-1132.6-85.3h-11.2c-0.8,0-1.4-0.6-1.4-1.4c0-0.8,0.6-1.4,1.4-1.4h11.2c0.8,0,1.4,0.6,1.4,1.4
			C-1131.2-85.9-1131.9-85.3-1132.6-85.3z"/>
	</g>
</g>
<g>
	<g>
		<path d="M-1132.8-20h-10.6c-5.8,0-10.5-4.7-10.5-10.5V-41c0-5.8,4.7-10.5,10.5-10.5h10.6c5.8,0,10.5,4.7,10.5,10.5v10.6
			C-1122.3-24.7-1127-20-1132.8-20z M-1143.4-48.7c-4.2,0-7.7,3.4-7.7,7.7v10.6c0,4.2,3.4,7.7,7.7,7.7h10.6c4.2,0,7.7-3.4,7.7-7.7
			V-41c0-4.2-3.4-7.7-7.7-7.7H-1143.4z"/>
	</g>
	<g>
		<path d="M-1142.7-28.4c-0.2,0-0.5-0.1-0.7-0.2c-0.4-0.3-0.7-0.7-0.7-1.2v-10.6c0-0.5,0.2-0.9,0.6-1.2c0.4-0.3,0.9-0.3,1.3-0.1
			l11.2,4.5c0.5,0.2,0.8,0.7,0.9,1.2c0,0.5-0.2,1-0.7,1.3l-11.2,6.1C-1142.2-28.4-1142.4-28.4-1142.7-28.4z M-1141.3-38.3v6.2
			l6.5-3.6L-1141.3-38.3z"/>
	</g>
</g>
</svg>
