<?xml version="1.0" encoding="utf-8"?>
<!-- Generator: Adobe Illustrator 23.0.2, SVG Export Plug-In . SVG Version: 6.00 Build 0)  -->
<svg version="1.1" id="Layer_1" xmlns="http://www.w3.org/2000/svg" xmlns:xlink="http://www.w3.org/1999/xlink" x="0px" y="0px"
	 viewBox="0 0 32 33" style="enable-background:new 0 0 32 33;" xml:space="preserve">
<style type="text/css">
	.st0{fill:#FFFFFF;}
</style>
<g>
	<g>
		<path class="st0" d="M21.2,32.2H10.6c-5.8,0-10.5-4.7-10.5-10.5V11.2c0-5.8,4.7-10.5,10.5-10.5h10.6c5.8,0,10.5,4.7,10.5,10.5
			v10.6C31.7,27.5,27,32.2,21.2,32.2z M10.6,3.5C6.4,3.5,3,6.9,3,11.2v10.6c0,4.2,3.4,7.7,7.7,7.7h10.6c4.2,0,7.7-3.4,7.7-7.7V11.2
			c0-4.2-3.4-7.7-7.7-7.7H10.6z"/>
	</g>
	<g>
		<path class="st0" d="M15.8,27.2c-0.7,0-1.3-0.5-1.4-1.3c-0.1-1.3-1.1-12.6,0-16.7c0.5-1.7,1.5-2.4,2.3-2.6c2.3-0.7,5,1.5,5.5,1.9
			c0.6,0.5,0.6,1.4,0.1,2c-0.5,0.6-1.4,0.6-2,0.1c-0.9-0.8-2.3-1.5-2.9-1.4c-0.2,0.1-0.4,0.5-0.4,0.7c-0.9,3-0.3,12.3,0,15.7
			c0.1,0.8-0.5,1.4-1.3,1.5C15.9,27.2,15.8,27.2,15.8,27.2z"/>
	</g>
	<g>
		<path class="st0" d="M21.4,17.7H10.2c-0.8,0-1.4-0.6-1.4-1.4s0.6-1.4,1.4-1.4h11.2c0.8,0,1.4,0.6,1.4,1.4S22.1,17.7,21.4,17.7z"/>
	</g>
</g>
<g>
	<g>
		<path d="M-37.8,41h-10.6c-5.8,0-10.5-4.7-10.5-10.5V20c0-5.8,4.7-10.5,10.5-10.5h10.6c5.8,0,10.5,4.7,10.5,10.5v10.6
			C-27.3,36.3-32,41-37.8,41z M-48.4,12.3c-4.2,0-7.7,3.4-7.7,7.7v10.6c0,4.2,3.4,7.7,7.7,7.7h10.6c4.2,0,7.7-3.4,7.7-7.7V20
			c0-4.2-3.4-7.7-7.7-7.7H-48.4z"/>
	</g>
	<g>
		<path d="M-47.7,32.6c-0.2,0-0.5-0.1-0.7-0.2c-0.4-0.3-0.7-0.7-0.7-1.2V20.6c0-0.5,0.2-0.9,0.6-1.2c0.4-0.3,0.9-0.3,1.3-0.1
			l11.2,4.5c0.5,0.2,0.8,0.7,0.9,1.2c0,0.5-0.2,1-0.7,1.3L-47,32.5C-47.2,32.6-47.4,32.6-47.7,32.6z M-46.3,22.7v6.2l6.5-3.6
			L-46.3,22.7z"/>
	</g>
</g>
</svg>
