<?xml version="1.0" encoding="utf-8"?>
<!-- Generator: Adobe Illustrator 23.0.2, SVG Export Plug-In . SVG Version: 6.00 Build 0)  -->
<svg version="1.1" id="Layer_1" xmlns="http://www.w3.org/2000/svg" xmlns:xlink="http://www.w3.org/1999/xlink" x="0px" y="0px"
	 viewBox="0 0 32 32" style="enable-background:new 0 0 32 32;" xml:space="preserve">
<style type="text/css">
	.st0{fill:#FFFFFF;}
</style>
<g>
	<g>
		<path class="st0" d="M21.2,32H10.6C4.9,32,0.2,27.3,0.2,21.5V11c0-5.8,4.7-10.5,10.5-10.5h10.6C27,0.5,31.7,5.2,31.7,11v10.6
			C31.7,27.3,27,32,21.2,32z M10.6,3.3C6.4,3.3,3,6.7,3,11v10.6c0,4.2,3.4,7.7,7.7,7.7h10.6c4.2,0,7.7-3.4,7.7-7.7V11
			c0-4.2-3.4-7.7-7.7-7.7H10.6z"/>
	</g>
	<g>
		<path class="st0" d="M11.3,23.6c-0.2,0-0.5-0.1-0.7-0.2c-0.4-0.3-0.7-0.7-0.7-1.2V11.6c0-0.5,0.2-0.9,0.6-1.2s0.9-0.3,1.3-0.1
			L23,14.8c0.5,0.2,0.8,0.7,0.9,1.2c0,0.5-0.2,1-0.7,1.3L12,23.5C11.8,23.6,11.6,23.6,11.3,23.6z M12.7,13.7v6.2l6.5-3.6L12.7,13.7z
			"/>
	</g>
</g>
</svg>
