<?xml version="1.0" encoding="utf-8"?>
<!-- Generator: Adobe Illustrator 23.0.2, SVG Export Plug-In . SVG Version: 6.00 Build 0)  -->
<svg version="1.1" id="Layer_1" xmlns="http://www.w3.org/2000/svg" xmlns:xlink="http://www.w3.org/1999/xlink" x="0px" y="0px"
	 viewBox="0 0 835.8 383.2" style="enable-background:new 0 0 835.8 383.2;" xml:space="preserve">
<style type="text/css">
	.st0{opacity:0.6;}
	.st1{fill:#FFFFFF;}
	.st2{fill:#F2F2F2;}
</style>
<g class="st0">
	<path class="st1" d="M224.2,209.2l10.1,3l7.3,9.1l-9.9,4.8l-8.9-2.7l-21.5,24.2l-21.6,5.9c-1.9,0.5-3.2-2.1-1.5-3.2l14.2-9.7
		l9.7-23l-27.3-8.9l-19.4,8.7l1.7-10.7l11.6-5.2l-6.9-11.2l3.6-11.7l10.2,17.7l29.7,9.2l-0.5-23.2L193.7,170
		c-0.8-0.9,0.2-2.2,1.2-1.7l18.1,7.7L224.2,209.2z"/>
</g>
<g>
	<path class="st2" d="M223.7,28.4c-1-0.6-1.8-1.3-2.4-2.3c-0.6-1-0.9-2.1-0.9-3.3s0.3-2.3,0.9-3.3c0.6-1,1.4-1.7,2.4-2.3
		s2.1-0.8,3.4-0.8c1.2,0,2.4,0.3,3.4,0.8c1,0.6,1.8,1.3,2.4,2.3c0.6,1,0.9,2.1,0.9,3.3s-0.3,2.3-0.9,3.3c-0.6,1-1.4,1.7-2.4,2.3
		c-1,0.6-2.1,0.8-3.4,0.8C225.9,29.2,224.8,29,223.7,28.4z M229.8,27.4c0.8-0.5,1.4-1.1,1.9-1.9s0.7-1.7,0.7-2.7s-0.2-1.9-0.7-2.7
		s-1.1-1.4-1.9-1.9c-0.8-0.5-1.7-0.7-2.7-0.7c-1,0-1.9,0.2-2.7,0.7c-0.8,0.5-1.4,1.1-1.9,1.9s-0.7,1.7-0.7,2.7s0.2,1.9,0.7,2.7
		s1.1,1.4,1.9,1.9c0.8,0.5,1.7,0.7,2.7,0.7C228.1,28,229,27.8,229.8,27.4z"/>
	<path class="st2" d="M245.6,28v3.4h-1.2v-2.3h-8.5v2.3h-1.2V28h0.5c0.6,0,1.1-0.5,1.3-1.4c0.2-0.9,0.4-2.2,0.5-3.8l0.1-3.2h7V28
		H245.6z M237.8,26.2c-0.2,0.9-0.5,1.5-0.9,1.8h5.9v-7.2h-4.6l-0.1,2.1C238.1,24.2,238,25.3,237.8,26.2z"/>
	<path class="st2" d="M257.3,28v3.4h-1.2v-2.3h-8.5v2.3h-1.2V28h0.5c0.6,0,1.1-0.5,1.3-1.4c0.2-0.9,0.4-2.2,0.5-3.8l0.1-3.2h7V28
		H257.3z M249.5,26.2c-0.2,0.9-0.5,1.5-0.9,1.8h5.9v-7.2H250l-0.1,2.1C249.8,24.2,249.7,25.3,249.5,26.2z"/>
	<path class="st2" d="M265.9,20.5c0.7,0.6,1,1.5,1,2.7v5.9h-1.2v-1.5c-0.3,0.5-0.7,0.9-1.3,1.2c-0.6,0.3-1.2,0.4-2,0.4
		c-1.1,0-1.9-0.3-2.5-0.8s-0.9-1.2-0.9-2c0-0.8,0.3-1.5,0.9-1.9c0.6-0.5,1.5-0.7,2.8-0.7h3v-0.6c0-0.8-0.2-1.4-0.7-1.9
		s-1.1-0.6-2-0.6c-0.6,0-1.2,0.1-1.7,0.3s-1,0.5-1.4,0.8l-0.6-1c0.5-0.4,1.1-0.7,1.7-0.9c0.7-0.2,1.4-0.3,2.1-0.3
		C264.3,19.6,265.2,19.9,265.9,20.5z M264.4,27.7c0.5-0.3,0.9-0.8,1.2-1.4v-1.5h-3c-1.6,0-2.4,0.6-2.4,1.7c0,0.6,0.2,1,0.6,1.3
		c0.4,0.3,1,0.5,1.8,0.5C263.3,28.2,263.9,28,264.4,27.7z"/>
</g>
<g>
	<path class="st2" d="M367,19.7v9.5h-1.3v-8.3h-4.5l-0.1,2.3c-0.1,2-0.3,3.5-0.7,4.5c-0.4,1.1-1,1.6-1.9,1.6c-0.3,0-0.6,0-0.9-0.1
		l0.1-1.1c0.2,0,0.4,0.1,0.5,0.1c0.5,0,0.9-0.2,1.1-0.7s0.4-1,0.5-1.7s0.2-1.6,0.2-2.7l0.2-3.4H367z"/>
	<path class="st2" d="M377.5,23.8c0.6,0.5,0.9,1.3,0.9,2.2c0,1-0.3,1.8-1,2.3s-1.6,0.8-2.9,0.8l-3.8,0v-9.5h1.3V23l2.8,0
		C375.9,23,376.8,23.3,377.5,23.8z M376.4,27.6c0.5-0.4,0.7-0.9,0.7-1.6c0-0.7-0.2-1.2-0.7-1.5c-0.4-0.3-1.1-0.5-2-0.5l-2.5,0v4.2
		l2.5,0C375.3,28.2,376,28,376.4,27.6z"/>
	<path class="st2" d="M382.3,28.6c-0.7-0.4-1.3-1-1.7-1.7c-0.4-0.7-0.6-1.6-0.6-2.5c0-0.9,0.2-1.8,0.6-2.5c0.4-0.7,1-1.3,1.7-1.7
		c0.7-0.4,1.6-0.6,2.5-0.6s1.7,0.2,2.5,0.6c0.7,0.4,1.3,1,1.7,1.7c0.4,0.7,0.6,1.6,0.6,2.5c0,0.9-0.2,1.8-0.6,2.5
		c-0.4,0.7-1,1.3-1.7,1.7c-0.7,0.4-1.6,0.6-2.5,0.6S383,29,382.3,28.6z M386.5,27.6c0.5-0.3,1-0.7,1.3-1.3c0.3-0.6,0.5-1.2,0.5-1.9
		c0-0.7-0.2-1.4-0.5-1.9c-0.3-0.6-0.7-1-1.3-1.3c-0.5-0.3-1.1-0.5-1.8-0.5s-1.3,0.2-1.8,0.5c-0.5,0.3-1,0.7-1.3,1.3
		c-0.3,0.6-0.5,1.2-0.5,1.9c0,0.7,0.2,1.4,0.5,1.9c0.3,0.6,0.7,1,1.3,1.3s1.1,0.5,1.8,0.5S386,27.9,386.5,27.6z"/>
	<path class="st2" d="M401.4,28v3.4h-1.2v-2.3h-8.5v2.3h-1.2V28h0.5c0.6,0,1.1-0.5,1.3-1.4c0.2-0.9,0.4-2.2,0.5-3.8l0.1-3.2h7V28
		H401.4z M393.7,26.2c-0.2,0.9-0.5,1.5-0.9,1.8h5.9v-7.2h-4.6l-0.1,2.1C394,24.2,393.9,25.3,393.7,26.2z"/>
	<path class="st2" d="M405.4,28.6c-0.7-0.4-1.3-1-1.7-1.7c-0.4-0.7-0.6-1.6-0.6-2.5c0-0.9,0.2-1.8,0.6-2.5c0.4-0.7,1-1.3,1.7-1.7
		c0.7-0.4,1.6-0.6,2.5-0.6s1.7,0.2,2.5,0.6c0.7,0.4,1.3,1,1.7,1.7c0.4,0.7,0.6,1.6,0.6,2.5c0,0.9-0.2,1.8-0.6,2.5
		c-0.4,0.7-1,1.3-1.7,1.7c-0.7,0.4-1.6,0.6-2.5,0.6S406.1,29,405.4,28.6z M409.6,27.6c0.5-0.3,1-0.7,1.3-1.3
		c0.3-0.6,0.5-1.2,0.5-1.9c0-0.7-0.2-1.4-0.5-1.9c-0.3-0.6-0.7-1-1.3-1.3c-0.5-0.3-1.1-0.5-1.8-0.5s-1.3,0.2-1.8,0.5
		c-0.5,0.3-1,0.7-1.3,1.3c-0.3,0.6-0.5,1.2-0.5,1.9c0,0.7,0.2,1.4,0.5,1.9c0.3,0.6,0.7,1,1.3,1.3s1.1,0.5,1.8,0.5
		S409.1,27.9,409.6,27.6z"/>
	<path class="st2" d="M423.3,26.5c0,0.8-0.3,1.5-0.9,1.9c-0.6,0.4-1.5,0.7-2.7,0.7h-4.3v-9.5h4.2c1.1,0,1.9,0.2,2.5,0.6
		c0.6,0.4,0.9,1,0.9,1.8c0,0.5-0.1,1-0.4,1.3c-0.3,0.4-0.7,0.6-1.2,0.8C422.7,24.5,423.3,25.3,423.3,26.5z M416.6,23.9h2.8
		c0.7,0,1.3-0.1,1.7-0.4s0.6-0.7,0.6-1.2s-0.2-0.9-0.6-1.2c-0.4-0.3-1-0.4-1.7-0.4h-2.8V23.9z M421.5,27.7c0.4-0.3,0.6-0.7,0.6-1.2
		c0-0.6-0.2-1-0.6-1.3c-0.4-0.3-1-0.4-1.8-0.4h-3.1v3.3h3C420.4,28.1,421,28,421.5,27.7z"/>
	<path class="st2" d="M426.3,19.7h1.3v7.5l6.3-7.5h1.1v9.5h-1.3v-7.5l-6.3,7.5h-1.2V19.7z"/>
	<path class="st2" d="M442.1,24.9H440v4.2h-1.3v-9.5h1.3v4.2h2.2l3.3-4.2h1.4l-3.7,4.6l4,4.9h-1.5L442.1,24.9z"/>
</g>
<g>
	<g>
		<path class="st2" d="M536.5,118.5v12.6h-1.3v-3.8h-3.8c-0.2,0-0.4,0-0.7,0l-2.6,3.9h-1.4l2.9-4.1c-0.9-0.3-1.6-0.8-2.1-1.5
			s-0.7-1.6-0.7-2.6c0-1.4,0.4-2.5,1.3-3.3c0.9-0.8,2.1-1.2,3.6-1.2H536.5z M528.9,125.3c0.6,0.6,1.5,0.8,2.7,0.8h3.7v-6.5h-3.5
			c-1.2,0-2.1,0.3-2.7,0.8c-0.6,0.6-1,1.4-1,2.4C528,124,528.3,124.8,528.9,125.3z"/>
	</g>
	<g>
		<path class="st2" d="M546.6,127c0.4,0.4,0.5,0.9,0.5,1.4s-0.2,1-0.6,1.5c-0.4,0.4-0.9,0.8-1.5,1c-0.6,0.2-1.4,0.4-2.1,0.4
			c-0.7,0-1.4-0.1-2-0.3c-0.7-0.2-1.2-0.5-1.7-0.9l0.4-1c0.4,0.3,0.9,0.6,1.5,0.8c0.6,0.2,1.2,0.3,1.7,0.3c0.9,0,1.6-0.2,2.2-0.5
			c0.6-0.3,0.8-0.8,0.8-1.3c0-0.5-0.2-0.9-0.7-1.2s-1.1-0.4-1.9-0.4h-1.6v-0.9h1.5c0.7,0,1.3-0.1,1.7-0.4c0.4-0.3,0.6-0.6,0.6-1.1
			c0-0.5-0.2-0.9-0.7-1.2c-0.5-0.3-1.1-0.4-1.9-0.4c-1,0-2,0.3-3,0.8l-0.4-1c1.1-0.6,2.3-0.9,3.5-0.9c0.7,0,1.4,0.1,2,0.3
			c0.6,0.2,1,0.5,1.4,0.9c0.3,0.4,0.5,0.8,0.5,1.3c0,0.5-0.2,0.9-0.5,1.3s-0.8,0.6-1.3,0.8C545.8,126.3,546.3,126.6,546.6,127z"/>
	</g>
	<g>
		<path class="st2" d="M550.1,121.7h1.3v7.5l6.3-7.5h1.1v9.5h-1.3v-7.5l-6.3,7.5h-1.2V121.7z"/>
	</g>
	<g>
		<path class="st2" d="M565.9,126.9h-2.2v4.2h-1.3v-9.5h1.3v4.2h2.2l3.3-4.2h1.4l-3.7,4.6l4,4.9h-1.5L565.9,126.9z"/>
	</g>
	<g>
		<path class="st2" d="M586.2,119.7h-4.4v11.4h-1.3v-11.4H576v-1.2h10.2V119.7z"/>
	</g>
	<g>
		<path class="st2" d="M595.3,122.2c0.7,0.4,1.3,1,1.7,1.7c0.4,0.7,0.6,1.6,0.6,2.5c0,0.9-0.2,1.8-0.6,2.5s-1,1.3-1.7,1.7
			s-1.5,0.6-2.4,0.6c-0.8,0-1.5-0.2-2.1-0.5c-0.6-0.3-1.1-0.8-1.5-1.4v5.3H588v-13h1.2v1.9c0.4-0.6,0.9-1.1,1.5-1.4
			c0.6-0.3,1.3-0.5,2.1-0.5C593.7,121.6,594.6,121.8,595.3,122.2z M594.6,129.6c0.5-0.3,1-0.7,1.3-1.3c0.3-0.6,0.5-1.2,0.5-1.9
			c0-0.7-0.2-1.4-0.5-1.9c-0.3-0.6-0.7-1-1.3-1.3c-0.5-0.3-1.1-0.5-1.8-0.5c-0.7,0-1.3,0.2-1.8,0.5c-0.5,0.3-1,0.7-1.3,1.3
			c-0.3,0.6-0.5,1.2-0.5,1.9c0,0.7,0.2,1.4,0.5,1.9c0.3,0.6,0.7,1,1.3,1.3s1.1,0.5,1.8,0.5C593.4,130.1,594,129.9,594.6,129.6z"/>
	</g>
	<g>
		<path class="st2" d="M601.8,130.6c-0.7-0.4-1.3-1-1.7-1.7c-0.4-0.7-0.6-1.6-0.6-2.5c0-0.9,0.2-1.8,0.6-2.5c0.4-0.7,1-1.3,1.7-1.7
			c0.7-0.4,1.6-0.6,2.5-0.6s1.7,0.2,2.5,0.6c0.7,0.4,1.3,1,1.7,1.7c0.4,0.7,0.6,1.6,0.6,2.5c0,0.9-0.2,1.8-0.6,2.5
			c-0.4,0.7-1,1.3-1.7,1.7c-0.7,0.4-1.6,0.6-2.5,0.6S602.5,131,601.8,130.6z M606,129.6c0.5-0.3,1-0.7,1.3-1.3
			c0.3-0.6,0.5-1.2,0.5-1.9c0-0.7-0.2-1.4-0.5-1.9c-0.3-0.6-0.7-1-1.3-1.3c-0.5-0.3-1.1-0.5-1.8-0.5s-1.3,0.2-1.8,0.5
			c-0.5,0.3-1,0.7-1.3,1.3c-0.3,0.6-0.5,1.2-0.5,1.9c0,0.7,0.2,1.4,0.5,1.9c0.3,0.6,0.7,1,1.3,1.3s1.1,0.5,1.8,0.5
			S605.5,129.9,606,129.6z"/>
	</g>
	<g>
		<path class="st2" d="M619.5,121.7v9.5h-1.3v-8.3h-4.5l-0.1,2.3c-0.1,2-0.3,3.5-0.7,4.5c-0.4,1.1-1,1.6-1.9,1.6
			c-0.3,0-0.6,0-0.9-0.1l0.1-1.1c0.2,0,0.4,0.1,0.5,0.1c0.5,0,0.9-0.2,1.1-0.7s0.4-1,0.5-1.7s0.2-1.6,0.2-2.7l0.2-3.4H619.5z"/>
	</g>
	<g>
		<path class="st2" d="M630.4,121.7v9.5h-1.2V128h-3h-0.4l-2.2,3.1h-1.4l2.4-3.3c-0.7-0.2-1.3-0.6-1.7-1c-0.4-0.5-0.6-1.1-0.6-1.9
			c0-1.1,0.4-1.9,1.1-2.4s1.7-0.8,3-0.8H630.4z M626.3,127h2.9v-4.2h-2.8c-1.8,0-2.8,0.7-2.8,2.1C623.7,126.3,624.5,127,626.3,127z"
			/>
	</g>
</g>
<g>
	<path class="st2" d="M645.6,235.5h9.2v1.1h-7.9v4.1h4.1c1.5,0,2.6,0.3,3.4,0.9c0.8,0.6,1.2,1.5,1.2,2.7c0,1.2-0.4,2.1-1.3,2.8
		c-0.8,0.6-2,1-3.6,1h-5.1V235.5z M650.7,247.1c1.2,0,2-0.2,2.6-0.7c0.6-0.4,0.9-1.1,0.9-2c0-0.9-0.3-1.5-0.9-1.9s-1.5-0.6-2.7-0.6
		h-3.8v5.2H650.7z"/>
	<path class="st2" d="M666.7,243.8h-7.9c0.1,1,0.5,1.8,1.1,2.4c0.7,0.6,1.5,0.9,2.6,0.9c0.6,0,1.1-0.1,1.6-0.3
		c0.5-0.2,0.9-0.5,1.3-0.9l0.7,0.8c-0.4,0.5-0.9,0.9-1.6,1.2s-1.3,0.4-2.1,0.4c-1,0-1.8-0.2-2.6-0.6s-1.3-1-1.8-1.7
		c-0.4-0.7-0.6-1.6-0.6-2.5c0-0.9,0.2-1.8,0.6-2.5c0.4-0.7,1-1.3,1.7-1.7s1.5-0.6,2.4-0.6c0.9,0,1.7,0.2,2.4,0.6s1.2,1,1.6,1.7
		c0.4,0.7,0.6,1.6,0.6,2.5L666.7,243.8z M659.8,240.6c-0.6,0.6-1,1.3-1.1,2.3h6.7c-0.1-0.9-0.4-1.7-1.1-2.3
		c-0.6-0.6-1.4-0.9-2.3-0.9C661.2,239.7,660.4,240,659.8,240.6z"/>
	<path class="st2" d="M676.8,239.2c0.7,0.4,1.3,1,1.7,1.7c0.4,0.7,0.6,1.6,0.6,2.5c0,0.9-0.2,1.8-0.6,2.5s-1,1.3-1.7,1.7
		s-1.5,0.6-2.4,0.6c-0.8,0-1.5-0.2-2.1-0.5c-0.6-0.3-1.1-0.8-1.5-1.4v5.3h-1.3v-13h1.2v1.9c0.4-0.6,0.9-1.1,1.5-1.4
		c0.6-0.3,1.3-0.5,2.1-0.5C675.3,238.6,676.1,238.8,676.8,239.2z M676.1,246.6c0.5-0.3,1-0.7,1.3-1.3c0.3-0.6,0.5-1.2,0.5-1.9
		c0-0.7-0.2-1.4-0.5-1.9c-0.3-0.6-0.7-1-1.3-1.3c-0.5-0.3-1.1-0.5-1.8-0.5c-0.7,0-1.3,0.2-1.8,0.5c-0.5,0.3-1,0.7-1.3,1.3
		c-0.3,0.6-0.5,1.2-0.5,1.9c0,0.7,0.2,1.4,0.5,1.9c0.3,0.6,0.7,1,1.3,1.3s1.1,0.5,1.8,0.5C675,247.1,675.6,246.9,676.1,246.6z"/>
	<path class="st2" d="M688.6,239.8h-5.4v8.3h-1.3v-9.5h6.7V239.8z"/>
	<path class="st2" d="M698.3,243.8h-7.9c0.1,1,0.5,1.8,1.1,2.4c0.7,0.6,1.5,0.9,2.6,0.9c0.6,0,1.1-0.1,1.6-0.3
		c0.5-0.2,0.9-0.5,1.3-0.9l0.7,0.8c-0.4,0.5-0.9,0.9-1.6,1.2s-1.3,0.4-2.1,0.4c-1,0-1.8-0.2-2.6-0.6s-1.3-1-1.8-1.7
		c-0.4-0.7-0.6-1.6-0.6-2.5c0-0.9,0.2-1.8,0.6-2.5c0.4-0.7,1-1.3,1.7-1.7s1.5-0.6,2.4-0.6c0.9,0,1.7,0.2,2.4,0.6s1.2,1,1.6,1.7
		c0.4,0.7,0.6,1.6,0.6,2.5L698.3,243.8z M691.4,240.6c-0.6,0.6-1,1.3-1.1,2.3h6.7c-0.1-0.9-0.4-1.7-1.1-2.3
		c-0.6-0.6-1.4-0.9-2.3-0.9C692.8,239.7,692,240,691.4,240.6z"/>
	<path class="st2" d="M701.1,238.7h1.3v4.2h6v-4.2h1.3v9.5h-1.3v-4.2h-6v4.2h-1.3V238.7z"/>
</g>
<g>
	<path class="st2" d="M87.6,30.5h9.2v1.1h-7.9v4.1H93c1.5,0,2.6,0.3,3.4,0.9c0.8,0.6,1.2,1.5,1.2,2.7c0,1.2-0.4,2.1-1.3,2.8
		c-0.8,0.6-2,1-3.6,1h-5.1V30.5z M92.7,42.1c1.2,0,2-0.2,2.6-0.7c0.6-0.4,0.9-1.1,0.9-2c0-0.9-0.3-1.5-0.9-1.9s-1.5-0.6-2.7-0.6
		h-3.8v5.2H92.7z"/>
	<path class="st2" d="M108.7,38.8h-7.9c0.1,1,0.5,1.8,1.1,2.4c0.7,0.6,1.5,0.9,2.6,0.9c0.6,0,1.1-0.1,1.6-0.3
		c0.5-0.2,0.9-0.5,1.3-0.9l0.7,0.8c-0.4,0.5-0.9,0.9-1.6,1.2s-1.3,0.4-2.1,0.4c-1,0-1.8-0.2-2.6-0.6s-1.3-1-1.8-1.7
		c-0.4-0.7-0.6-1.6-0.6-2.5c0-0.9,0.2-1.8,0.6-2.5c0.4-0.7,1-1.3,1.7-1.7s1.5-0.6,2.4-0.6c0.9,0,1.7,0.2,2.4,0.6s1.2,1,1.6,1.7
		c0.4,0.7,0.6,1.6,0.6,2.5L108.7,38.8z M101.8,35.6c-0.6,0.6-1,1.3-1.1,2.3h6.7c-0.1-0.9-0.4-1.7-1.1-2.3c-0.6-0.6-1.4-0.9-2.3-0.9
		C103.2,34.7,102.4,35,101.8,35.6z"/>
	<path class="st2" d="M118.8,34.2c0.7,0.4,1.3,1,1.7,1.7c0.4,0.7,0.6,1.6,0.6,2.5c0,0.9-0.2,1.8-0.6,2.5s-1,1.3-1.7,1.7
		s-1.5,0.6-2.4,0.6c-0.8,0-1.5-0.2-2.1-0.5c-0.6-0.3-1.1-0.8-1.5-1.4v5.3h-1.3v-13h1.2v1.9c0.4-0.6,0.9-1.1,1.5-1.4
		c0.6-0.3,1.3-0.5,2.1-0.5C117.3,33.6,118.1,33.8,118.8,34.2z M118.1,41.6c0.5-0.3,1-0.7,1.3-1.3c0.3-0.6,0.5-1.2,0.5-1.9
		c0-0.7-0.2-1.4-0.5-1.9c-0.3-0.6-0.7-1-1.3-1.3c-0.5-0.3-1.1-0.5-1.8-0.5c-0.7,0-1.3,0.2-1.8,0.5c-0.5,0.3-1,0.7-1.3,1.3
		c-0.3,0.6-0.5,1.2-0.5,1.9c0,0.7,0.2,1.4,0.5,1.9c0.3,0.6,0.7,1,1.3,1.3s1.1,0.5,1.8,0.5C117,42.1,117.6,41.9,118.1,41.6z"/>
	<path class="st2" d="M130.6,34.8h-5.4v8.3h-1.3v-9.5h6.7V34.8z"/>
	<path class="st2" d="M140.3,38.8h-7.9c0.1,1,0.5,1.8,1.1,2.4c0.7,0.6,1.5,0.9,2.6,0.9c0.6,0,1.1-0.1,1.6-0.3
		c0.5-0.2,0.9-0.5,1.3-0.9l0.7,0.8c-0.4,0.5-0.9,0.9-1.6,1.2s-1.3,0.4-2.1,0.4c-1,0-1.8-0.2-2.6-0.6s-1.3-1-1.8-1.7
		c-0.4-0.7-0.6-1.6-0.6-2.5c0-0.9,0.2-1.8,0.6-2.5c0.4-0.7,1-1.3,1.7-1.7s1.5-0.6,2.4-0.6c0.9,0,1.7,0.2,2.4,0.6s1.2,1,1.6,1.7
		c0.4,0.7,0.6,1.6,0.6,2.5L140.3,38.8z M133.4,35.6c-0.6,0.6-1,1.3-1.1,2.3h6.7c-0.1-0.9-0.4-1.7-1.1-2.3c-0.6-0.6-1.4-0.9-2.3-0.9
		C134.8,34.7,134,35,133.4,35.6z"/>
	<path class="st2" d="M143.1,33.7h1.3v4.2h6v-4.2h1.3v9.5h-1.3v-4.2h-6v4.2h-1.3V33.7z"/>
</g>
<g>
	<circle class="st1" cx="241.8" cy="49.2" r="6"/>
</g>
<g>
	<circle class="st1" cx="621.3" cy="247.7" r="6"/>
</g>
<g>
	<circle class="st1" cx="118.3" cy="61.7" r="6"/>
</g>
<g class="st0">
	<path class="st1" d="M692.8,388.7c-0.1,0-0.2,0-0.3,0c-0.4,0-0.8-0.3-1-0.7c-0.3-1-0.6-1.9-0.9-2.9c-0.2-0.5,0.1-1.1,0.6-1.3
		c0.5-0.2,1.1,0.1,1.3,0.6c0.3,1,0.6,1.9,0.9,2.9C693.6,388,693.4,388.6,692.8,388.7 M691,379.8c0.2,0.5-0.1,1.1-0.6,1.3
		c-0.1,0-0.2,0.1-0.3,0.1c-0.4,0-0.8-0.3-0.9-0.7c-0.3-0.9-0.6-1.9-1-2.8c-0.2-0.5,0.1-1.1,0.6-1.3c0.5-0.2,1.1,0.1,1.3,0.6
		C690.4,377.9,690.7,378.9,691,379.8 M687.5,373.6c-0.4,0-0.8-0.3-0.9-0.7c-0.3-0.9-0.7-1.9-1-2.8c-0.2-0.5,0.1-1.1,0.6-1.3
		c0.5-0.2,1.1,0.1,1.3,0.6c0.3,0.9,0.7,1.9,1,2.8c0.2,0.5-0.1,1.1-0.6,1.3C687.7,373.6,687.6,373.6,687.5,373.6z M685.1,367
		c-0.4,0-0.8-0.3-0.9-0.7c-0.3-0.9-0.7-1.9-1-2.8c-0.2-0.5,0.1-1.1,0.6-1.3c0.5-0.2,1.1,0.1,1.3,0.6c0.4,0.9,0.7,1.9,1,2.8
		c0.2,0.5-0.1,1.1-0.6,1.3C685.3,367,685.2,367,685.1,367z M682.3,359.5c-0.4,0-0.8-0.2-0.9-0.6c-0.4-0.9-0.7-1.9-1.1-2.8
		c-0.2-0.5,0-1.1,0.6-1.3c0.5-0.2,1.1,0,1.3,0.6c0.4,0.9,0.7,1.9,1.1,2.8c0.2,0.5-0.1,1.1-0.6,1.3
		C682.5,359.5,682.4,359.5,682.3,359.5z M679.3,352.1c-0.4,0-0.8-0.2-0.9-0.6c-0.4-0.9-0.8-1.8-1.1-2.8c-0.2-0.5,0-1.1,0.5-1.3
		c0.5-0.2,1.1,0,1.3,0.5c0.4,0.9,0.8,1.9,1.1,2.8c0.2,0.5,0,1.1-0.6,1.3C679.6,352.1,679.4,352.1,679.3,352.1z M676.6,345.6
		c-0.4,0-0.8-0.2-0.9-0.6c-0.4-0.9-0.8-1.8-1.2-2.7c-0.2-0.5,0-1.1,0.5-1.3c0.5-0.2,1.1,0,1.3,0.5c0.4,0.9,0.8,1.8,1.2,2.8
		c0.2,0.5,0,1.1-0.5,1.3C676.9,345.6,676.8,345.6,676.6,345.6z M673.5,338.3c-0.4,0-0.8-0.2-0.9-0.6c-0.4-0.9-0.8-1.8-1.2-2.7
		c-0.2-0.5,0-1.1,0.5-1.3c0.5-0.2,1.1,0,1.3,0.5c0.4,0.9,0.8,1.8,1.2,2.7c0.2,0.5,0,1.1-0.5,1.3
		C673.8,338.3,673.6,338.3,673.5,338.3z M670.2,331.1c-0.4,0-0.7-0.2-0.9-0.6c-0.4-0.9-0.8-1.8-1.3-2.7c-0.2-0.5,0-1.1,0.5-1.3
		c0.5-0.2,1.1,0,1.3,0.5c0.4,0.9,0.8,1.8,1.3,2.7c0.2,0.5,0,1.1-0.5,1.3C670.5,331,670.3,331.1,670.2,331.1z M667.2,324.8
		c-0.4,0-0.7-0.2-0.9-0.6c-0.4-0.9-0.9-1.8-1.3-2.7c-0.2-0.5,0-1.1,0.5-1.3c0.5-0.2,1.1,0,1.3,0.5c0.4,0.9,0.9,1.8,1.3,2.7
		c0.2,0.5,0,1.1-0.5,1.3C667.5,324.7,667.4,324.8,667.2,324.8z M663.7,317.6c-0.4,0-0.7-0.2-0.9-0.6c-0.4-0.9-0.9-1.8-1.3-2.7
		c-0.3-0.5-0.1-1.1,0.4-1.3s1.1-0.1,1.3,0.4c0.5,0.9,0.9,1.8,1.4,2.7c0.2,0.5,0,1.1-0.4,1.3C664,317.6,663.9,317.6,663.7,317.6z
		 M660.1,310.5c-0.4,0-0.7-0.2-0.9-0.5c-0.5-0.9-0.9-1.8-1.4-2.6c-0.3-0.5-0.1-1.1,0.4-1.4c0.5-0.3,1.1-0.1,1.4,0.4
		c0.5,0.9,0.9,1.8,1.4,2.7c0.3,0.5,0.1,1.1-0.4,1.3C660.4,310.5,660.2,310.5,660.1,310.5z M656.8,304.4c-0.4,0-0.7-0.2-0.9-0.5
		c-0.5-0.9-0.9-1.7-1.4-2.6c-0.3-0.5-0.1-1.1,0.4-1.4c0.5-0.3,1.1-0.1,1.4,0.4c0.5,0.9,1,1.8,1.4,2.6c0.3,0.5,0.1,1.1-0.4,1.4
		C657.1,304.3,657,304.4,656.8,304.4z M652.9,297.4c-0.3,0-0.7-0.2-0.9-0.5c-0.5-0.9-1-1.7-1.5-2.6c-0.3-0.5-0.1-1.1,0.4-1.4
		c0.5-0.3,1.1-0.1,1.4,0.4c0.5,0.9,1,1.7,1.5,2.6c0.3,0.5,0.1,1.1-0.4,1.4C653.3,297.3,653.1,297.4,652.9,297.4z M649,290.4
		c-0.3,0-0.7-0.2-0.9-0.5c-0.5-0.9-1-1.7-1.5-2.6c-0.3-0.5-0.1-1.1,0.4-1.4c0.5-0.3,1.1-0.1,1.4,0.4c0.5,0.9,1,1.7,1.5,2.6
		c0.3,0.5,0.1,1.1-0.4,1.4C649.3,290.4,649.2,290.4,649,290.4z M645.4,284.4c-0.3,0-0.7-0.2-0.9-0.5c-0.5-0.9-1-1.7-1.5-2.6
		c-0.3-0.5-0.1-1.1,0.3-1.4c0.5-0.3,1.1-0.1,1.4,0.3c0.5,0.9,1,1.7,1.6,2.6c0.3,0.5,0.1,1.1-0.3,1.4
		C645.8,284.4,645.6,284.4,645.4,284.4z M641.2,277.6c-0.3,0-0.7-0.2-0.8-0.5c-0.5-0.8-1.1-1.7-1.6-2.5c-0.3-0.5-0.2-1.1,0.3-1.4
		c0.5-0.3,1.1-0.2,1.4,0.3c0.5,0.8,1.1,1.7,1.6,2.5c0.3,0.5,0.2,1.1-0.3,1.4C641.6,277.6,641.4,277.6,641.2,277.6z M636.9,270.9
		c-0.3,0-0.6-0.2-0.8-0.5c-0.5-0.8-1.1-1.7-1.6-2.5c-0.3-0.5-0.2-1.1,0.3-1.4c0.5-0.3,1.1-0.2,1.4,0.3c0.5,0.8,1.1,1.7,1.6,2.5
		c0.3,0.5,0.2,1.1-0.3,1.4C637.3,270.9,637.1,270.9,636.9,270.9z M633.1,265.1c-0.3,0-0.6-0.2-0.8-0.4c-0.6-0.8-1.1-1.7-1.7-2.5
		c-0.3-0.5-0.2-1.1,0.3-1.4c0.5-0.3,1.1-0.2,1.4,0.3c0.6,0.8,1.1,1.7,1.7,2.5c0.3,0.5,0.2,1.1-0.3,1.4
		C633.5,265,633.3,265.1,633.1,265.1z M628.6,258.5c-0.3,0-0.6-0.1-0.8-0.4c-0.6-0.8-1.1-1.6-1.7-2.4c-0.3-0.5-0.2-1.1,0.2-1.4
		c0.5-0.3,1.1-0.2,1.4,0.2c0.6,0.8,1.1,1.6,1.7,2.5c0.3,0.5,0.2,1.1-0.3,1.4C629,258.4,628.8,258.5,628.6,258.5z M624,252
		c-0.3,0-0.6-0.1-0.8-0.4c-0.6-0.8-1.2-1.6-1.8-2.4c-0.3-0.4-0.2-1.1,0.2-1.4s1.1-0.2,1.4,0.2c0.6,0.8,1.2,1.6,1.8,2.4
		c0.3,0.4,0.2,1.1-0.2,1.4C624.4,251.9,624.2,252,624,252z M619.9,246.3c-0.3,0-0.6-0.1-0.8-0.4c-0.6-0.8-1.2-1.6-1.8-2.4
		c-0.3-0.4-0.2-1.1,0.2-1.4c0.4-0.3,1.1-0.2,1.4,0.2c0.6,0.8,1.2,1.6,1.8,2.4c0.3,0.4,0.2,1.1-0.2,1.4
		C620.3,246.3,620.1,246.3,619.9,246.3z M615.1,240c-0.3,0-0.6-0.1-0.8-0.4c-0.6-0.8-1.2-1.6-1.8-2.4c-0.3-0.4-0.3-1.1,0.2-1.4
		c0.4-0.3,1.1-0.3,1.4,0.2c0.6,0.8,1.2,1.6,1.8,2.4c0.3,0.4,0.3,1.1-0.2,1.4C615.5,239.9,615.3,240,615.1,240z M610.1,233.7
		c-0.3,0-0.6-0.1-0.8-0.4c-0.6-0.8-1.2-1.6-1.9-2.3c-0.3-0.4-0.3-1.1,0.2-1.4c0.4-0.3,1.1-0.3,1.4,0.2c0.6,0.8,1.3,1.6,1.9,2.3
		c0.3,0.4,0.3,1.1-0.2,1.4C610.6,233.6,610.4,233.7,610.1,233.7z M605.8,228.2c-0.3,0-0.6-0.1-0.8-0.4c-0.6-0.8-1.3-1.5-1.9-2.3
		c-0.4-0.4-0.3-1.1,0.1-1.4c0.4-0.4,1.1-0.3,1.4,0.1c0.6,0.8,1.3,1.5,1.9,2.3c0.3,0.4,0.3,1.1-0.1,1.4
		C606.2,228.1,606,228.2,605.8,228.2z M600.7,222.1c-0.3,0-0.6-0.1-0.8-0.4c-0.6-0.8-1.3-1.5-1.9-2.3c-0.4-0.4-0.3-1.1,0.1-1.4
		c0.4-0.4,1-0.3,1.4,0.1c0.7,0.8,1.3,1.5,1.9,2.3c0.4,0.4,0.3,1.1-0.1,1.4C601.1,222,600.9,222.1,600.7,222.1z M595.4,216
		c-0.3,0-0.6-0.1-0.8-0.3c-0.7-0.8-1.3-1.5-2-2.2c-0.4-0.4-0.3-1,0.1-1.4c0.4-0.4,1-0.3,1.4,0.1c0.7,0.8,1.3,1.5,2,2.3
		c0.4,0.4,0.3,1-0.1,1.4C595.9,215.9,595.7,216,595.4,216z M590.8,210.8c-0.3,0-0.5-0.1-0.7-0.3c-0.7-0.7-1.3-1.5-2-2.2
		c-0.4-0.4-0.3-1,0.1-1.4c0.4-0.4,1-0.3,1.4,0.1c0.7,0.7,1.3,1.5,2,2.2c0.4,0.4,0.3,1-0.1,1.4C591.3,210.7,591,210.8,590.8,210.8z
		 M585.4,204.9c-0.3,0-0.5-0.1-0.7-0.3c-0.7-0.7-1.4-1.5-2-2.2c-0.4-0.4-0.4-1,0-1.4c0.4-0.4,1-0.4,1.4,0c0.7,0.7,1.4,1.5,2.1,2.2
		c0.4,0.4,0.4,1-0.1,1.4C585.9,204.8,585.7,204.9,585.4,204.9z M579.9,199.1c-0.3,0-0.5-0.1-0.7-0.3c-0.7-0.7-1.4-1.4-2.1-2.2
		c-0.4-0.4-0.4-1,0-1.4c0.4-0.4,1-0.4,1.4,0c0.7,0.7,1.4,1.4,2.1,2.2c0.4,0.4,0.4,1,0,1.4C580.4,199,580.2,199.1,579.9,199.1z
		 M575,194c-0.3,0-0.5-0.1-0.7-0.3c-0.7-0.7-1.4-1.4-2.1-2.1c-0.4-0.4-0.4-1,0-1.4s1-0.4,1.4,0c0.7,0.7,1.4,1.4,2.1,2.1
		c0.4,0.4,0.4,1,0,1.4C575.6,193.9,575.3,194,575,194z M569.4,188.4c-0.3,0-0.5-0.1-0.7-0.3c-0.7-0.7-1.4-1.4-2.1-2.1
		c-0.4-0.4-0.4-1,0-1.4c0.4-0.4,1-0.4,1.4,0c0.7,0.7,1.4,1.4,2.2,2.1c0.4,0.4,0.4,1,0,1.4C569.9,188.3,569.6,188.4,569.4,188.4z
		 M563.6,182.9c-0.2,0-0.5-0.1-0.7-0.3c-0.7-0.7-1.4-1.4-2.2-2.1c-0.4-0.4-0.4-1,0-1.4c0.4-0.4,1-0.4,1.4,0c0.7,0.7,1.5,1.4,2.2,2.1
		c0.4,0.4,0.4,1,0,1.4C564.1,182.8,563.9,182.9,563.6,182.9z M558.5,178.1c-0.2,0-0.5-0.1-0.7-0.3c-0.7-0.7-1.5-1.3-2.2-2
		c-0.4-0.4-0.4-1-0.1-1.4c0.4-0.4,1-0.4,1.4-0.1c0.7,0.7,1.5,1.4,2.2,2c0.4,0.4,0.4,1,0.1,1.4C559,178,558.8,178.1,558.5,178.1z
		 M552.6,172.7c-0.2,0-0.5-0.1-0.7-0.3c-0.7-0.7-1.5-1.3-2.2-2c-0.4-0.4-0.5-1-0.1-1.4c0.4-0.4,1-0.5,1.4-0.1c0.8,0.7,1.5,1.3,2.3,2
		c0.4,0.4,0.4,1,0.1,1.4C553.1,172.6,552.8,172.7,552.6,172.7z M546.6,167.4c-0.2,0-0.5-0.1-0.7-0.2c-0.8-0.7-1.5-1.3-2.3-1.9
		c-0.4-0.4-0.5-1-0.1-1.4c0.4-0.4,1-0.5,1.4-0.1c0.8,0.6,1.5,1.3,2.3,2c0.4,0.4,0.5,1,0.1,1.4C547.1,167.3,546.8,167.4,546.6,167.4z
		 M541.2,162.9c-0.2,0-0.5-0.1-0.6-0.2c-0.8-0.6-1.5-1.3-2.3-1.9c-0.4-0.4-0.5-1-0.1-1.4c0.3-0.4,1-0.5,1.4-0.1
		c0.8,0.6,1.5,1.3,2.3,1.9c0.4,0.4,0.5,1,0.1,1.4C541.8,162.8,541.5,162.9,541.2,162.9z M535,157.8c-0.2,0-0.4-0.1-0.6-0.2
		c-0.8-0.6-1.6-1.3-2.3-1.9c-0.4-0.3-0.5-1-0.2-1.4c0.3-0.4,1-0.5,1.4-0.2c0.8,0.6,1.6,1.3,2.3,1.9c0.4,0.3,0.5,1,0.1,1.4
		C535.6,157.7,535.3,157.8,535,157.8z M528.8,152.8c-0.2,0-0.4-0.1-0.6-0.2c-0.8-0.6-1.6-1.2-2.4-1.8c-0.4-0.3-0.5-1-0.2-1.4
		c0.3-0.4,1-0.5,1.4-0.2c0.8,0.6,1.6,1.2,2.4,1.8c0.4,0.3,0.5,1,0.2,1.4C529.4,152.7,529.1,152.8,528.8,152.8z M523.2,148.6
		c-0.2,0-0.4-0.1-0.6-0.2c-0.8-0.6-1.6-1.2-2.4-1.8c-0.4-0.3-0.5-1-0.2-1.4c0.3-0.4,1-0.5,1.4-0.2c0.8,0.6,1.6,1.2,2.4,1.8
		c0.4,0.3,0.5,1,0.2,1.4C523.8,148.4,523.5,148.6,523.2,148.6z M516.8,143.8c-0.2,0-0.4-0.1-0.6-0.2c-0.8-0.6-1.6-1.2-2.4-1.8
		c-0.4-0.3-0.5-0.9-0.2-1.4c0.3-0.4,0.9-0.5,1.4-0.2c0.8,0.6,1.6,1.2,2.4,1.8c0.4,0.3,0.5,1,0.2,1.4
		C517.4,143.6,517.1,143.8,516.8,143.8z M510.3,139.1c-0.2,0-0.4-0.1-0.6-0.2c-0.8-0.6-1.6-1.2-2.5-1.7c-0.5-0.3-0.6-0.9-0.2-1.4
		c0.3-0.5,0.9-0.6,1.4-0.2c0.8,0.6,1.6,1.2,2.5,1.7c0.5,0.3,0.6,0.9,0.2,1.4C510.9,138.9,510.6,139.1,510.3,139.1z M504.6,135.1
		c-0.2,0-0.4-0.1-0.6-0.2c-0.8-0.6-1.6-1.1-2.5-1.7c-0.5-0.3-0.6-0.9-0.3-1.4s0.9-0.6,1.4-0.3c0.8,0.6,1.7,1.1,2.5,1.7
		c0.5,0.3,0.6,0.9,0.3,1.4C505.2,134.9,504.9,135.1,504.6,135.1z M497.9,130.6c-0.2,0-0.4-0.1-0.6-0.2c-0.8-0.6-1.7-1.1-2.5-1.6
		c-0.5-0.3-0.6-0.9-0.3-1.4c0.3-0.5,0.9-0.6,1.4-0.3c0.8,0.5,1.7,1.1,2.5,1.7c0.5,0.3,0.6,0.9,0.3,1.4
		C498.6,130.4,498.3,130.6,497.9,130.6z M491.2,126.2c-0.2,0-0.4-0.1-0.5-0.2c-0.8-0.5-1.7-1.1-2.5-1.6c-0.5-0.3-0.6-0.9-0.3-1.4
		c0.3-0.5,0.9-0.6,1.4-0.3c0.8,0.5,1.7,1.1,2.5,1.6c0.5,0.3,0.6,0.9,0.3,1.4C491.9,126.1,491.5,126.2,491.2,126.2z M485.3,122.5
		c-0.2,0-0.4,0-0.5-0.1c-0.8-0.5-1.7-1.1-2.6-1.6c-0.5-0.3-0.6-0.9-0.3-1.4c0.3-0.5,0.9-0.6,1.4-0.3c0.9,0.5,1.7,1,2.6,1.6
		c0.5,0.3,0.6,0.9,0.3,1.4C485.9,122.3,485.6,122.5,485.3,122.5z M478.4,118.3c-0.2,0-0.4,0-0.5-0.1c-0.9-0.5-1.7-1-2.6-1.5
		c-0.5-0.3-0.6-0.9-0.4-1.4c0.3-0.5,0.9-0.6,1.4-0.4c0.9,0.5,1.7,1,2.6,1.5c0.5,0.3,0.6,0.9,0.3,1.4
		C479.1,118.1,478.8,118.3,478.4,118.3z M471.5,114.3c-0.2,0-0.3,0-0.5-0.1c-0.9-0.5-1.7-1-2.6-1.5c-0.5-0.3-0.7-0.9-0.4-1.4
		c0.3-0.5,0.9-0.7,1.4-0.4c0.9,0.5,1.7,1,2.6,1.5c0.5,0.3,0.6,0.9,0.4,1.4C472.2,114.1,471.9,114.3,471.5,114.3z M-7.5,112.8
		c-0.3,0-0.7-0.2-0.9-0.5c-0.3-0.5-0.1-1.1,0.4-1.4c0.9-0.5,1.7-1,2.6-1.5c0.5-0.3,1.1-0.1,1.4,0.4c0.3,0.5,0.1,1.1-0.4,1.4
		c-0.9,0.5-1.7,1-2.6,1.5C-7.1,112.8-7.3,112.8-7.5,112.8z M465.4,110.8c-0.2,0-0.3,0-0.5-0.1c-0.9-0.5-1.8-1-2.6-1.4
		c-0.5-0.3-0.7-0.9-0.4-1.4c0.3-0.5,0.9-0.7,1.4-0.4c0.9,0.5,1.8,1,2.6,1.5c0.5,0.3,0.7,0.9,0.4,1.4
		C466.1,110.6,465.8,110.8,465.4,110.8z M-1.4,108.4c-0.3-0.5-0.1-1.1,0.4-1.4c0.9-0.5,1.8-1,2.6-1.4c0.5-0.3,1.1-0.1,1.4,0.4
		s0.1,1.1-0.4,1.4c-0.9,0.5-1.8,0.9-2.6,1.4c-0.2,0.1-0.3,0.1-0.5,0.1C-0.8,109-1.2,108.8-1.4,108.4 M458.4,107
		c-0.2,0-0.3,0-0.5-0.1c-0.9-0.5-1.8-0.9-2.7-1.4c-0.5-0.3-0.7-0.9-0.4-1.4c0.3-0.5,0.9-0.7,1.4-0.4c0.9,0.5,1.8,0.9,2.7,1.4
		c0.5,0.3,0.7,0.9,0.4,1.4C459.1,106.8,458.7,107,458.4,107z M5.7,105.7c-0.4,0-0.7-0.2-0.9-0.5c-0.3-0.5-0.1-1.1,0.4-1.4
		c0.9-0.5,1.8-0.9,2.7-1.4c0.5-0.3,1.1-0.1,1.3,0.4c0.3,0.5,0.1,1.1-0.4,1.3c-0.9,0.5-1.8,0.9-2.6,1.4C6,105.6,5.8,105.7,5.7,105.7z
		 M451.3,103.3c-0.2,0-0.3,0-0.5-0.1c-0.9-0.5-1.8-0.9-2.7-1.4c-0.5-0.2-0.7-0.9-0.4-1.3c0.2-0.5,0.9-0.7,1.3-0.4
		c0.9,0.5,1.8,0.9,2.7,1.4c0.5,0.3,0.7,0.9,0.4,1.3C452,103.1,451.6,103.3,451.3,103.3z M12.8,102c-0.4,0-0.7-0.2-0.9-0.5
		c-0.2-0.5-0.1-1.1,0.4-1.3c0.9-0.5,1.8-0.9,2.7-1.3c0.5-0.2,1.1,0,1.3,0.4c0.2,0.5,0,1.1-0.4,1.3c-0.9,0.4-1.8,0.9-2.7,1.3
		C13.1,102,12.9,102,12.8,102z M445,100.1c-0.1,0-0.3,0-0.4-0.1c-0.9-0.4-1.8-0.9-2.7-1.3c-0.5-0.2-0.7-0.8-0.5-1.3
		c0.2-0.5,0.8-0.7,1.3-0.5c0.9,0.4,1.8,0.9,2.7,1.3c0.5,0.2,0.7,0.8,0.5,1.3C445.7,99.9,445.4,100.1,445,100.1z M19.9,98.5
		c-0.4,0-0.7-0.2-0.9-0.6c-0.2-0.5,0-1.1,0.5-1.3c0.9-0.4,1.8-0.9,2.7-1.3c0.5-0.2,1.1,0,1.3,0.5c0.2,0.5,0,1.1-0.5,1.3
		c-0.9,0.4-1.8,0.9-2.7,1.3C20.2,98.4,20,98.5,19.9,98.5z M437.8,96.6c-0.1,0-0.3,0-0.4-0.1c-0.9-0.4-1.8-0.9-2.7-1.3
		c-0.5-0.2-0.7-0.8-0.5-1.3c0.2-0.5,0.8-0.7,1.3-0.5c0.9,0.4,1.8,0.9,2.7,1.3c0.5,0.2,0.7,0.8,0.5,1.3
		C438.5,96.4,438.2,96.6,437.8,96.6z M26.2,95.5c-0.4,0-0.7-0.2-0.9-0.6c-0.2-0.5,0-1.1,0.5-1.3c0.9-0.4,1.8-0.8,2.7-1.3
		c0.5-0.2,1.1,0,1.3,0.5c0.2,0.5,0,1.1-0.5,1.3c-0.9,0.4-1.8,0.8-2.7,1.3C26.5,95.4,26.3,95.5,26.2,95.5z M430.5,93.2
		c-0.1,0-0.3,0-0.4-0.1c-0.9-0.4-1.8-0.8-2.7-1.2c-0.5-0.2-0.7-0.8-0.5-1.3c0.2-0.5,0.8-0.7,1.3-0.5c0.9,0.4,1.8,0.8,2.8,1.2
		c0.5,0.2,0.7,0.8,0.5,1.3C431.3,93,430.9,93.2,430.5,93.2z M33.4,92.2c-0.4,0-0.7-0.2-0.9-0.6c-0.2-0.5,0-1.1,0.5-1.3
		c0.9-0.4,1.8-0.8,2.7-1.2c0.5-0.2,1.1,0,1.3,0.5c0.2,0.5,0,1.1-0.5,1.3c-0.9,0.4-1.8,0.8-2.7,1.2C33.7,92.1,33.6,92.2,33.4,92.2z
		 M424.1,90.4c-0.1,0-0.3,0-0.4-0.1c-0.9-0.4-1.8-0.8-2.8-1.2c-0.5-0.2-0.7-0.8-0.5-1.3c0.2-0.5,0.8-0.7,1.3-0.5
		c0.9,0.4,1.8,0.8,2.8,1.2c0.5,0.2,0.7,0.8,0.5,1.3C424.8,90.2,424.5,90.4,424.1,90.4z M40.7,89c-0.4,0-0.8-0.2-0.9-0.6
		c-0.2-0.5,0-1.1,0.5-1.3c0.9-0.4,1.8-0.8,2.8-1.2c0.5-0.2,1.1,0,1.3,0.5c0.2,0.5,0,1.1-0.5,1.3c-0.9,0.4-1.8,0.8-2.7,1.2
		C41,88.9,40.9,89,40.7,89z M416.7,87.2c-0.1,0-0.3,0-0.4-0.1c-0.9-0.4-1.9-0.8-2.8-1.1c-0.5-0.2-0.8-0.8-0.5-1.3
		c0.2-0.5,0.8-0.8,1.3-0.5c0.9,0.4,1.9,0.8,2.8,1.2c0.5,0.2,0.8,0.8,0.5,1.3C417.5,87,417.1,87.2,416.7,87.2z M47.2,86.3
		c-0.4,0-0.8-0.2-0.9-0.6c-0.2-0.5,0-1.1,0.5-1.3c0.9-0.4,1.9-0.8,2.8-1.1c0.5-0.2,1.1,0,1.3,0.6c0.2,0.5,0,1.1-0.6,1.3
		c-0.9,0.4-1.9,0.7-2.8,1.1C47.4,86.3,47.3,86.3,47.2,86.3z M409.3,84.2c-0.1,0-0.2,0-0.4-0.1c-0.9-0.4-1.9-0.7-2.8-1.1
		c-0.5-0.2-0.8-0.8-0.6-1.3c0.2-0.5,0.8-0.8,1.3-0.6c0.9,0.4,1.9,0.7,2.8,1.1c0.5,0.2,0.8,0.8,0.6,1.3C410,84,409.7,84.2,409.3,84.2
		z M54.6,83.3c-0.4,0-0.8-0.2-0.9-0.6c-0.2-0.5,0.1-1.1,0.6-1.3c0.9-0.4,1.9-0.7,2.8-1.1c0.5-0.2,1.1,0.1,1.3,0.6
		c0.2,0.5-0.1,1.1-0.6,1.3c-0.9,0.4-1.9,0.7-2.8,1.1C54.8,83.3,54.7,83.3,54.6,83.3z M402.7,81.7c-0.1,0-0.2,0-0.4-0.1
		c-0.9-0.4-1.9-0.7-2.8-1.1c-0.5-0.2-0.8-0.8-0.6-1.3c0.2-0.5,0.8-0.8,1.3-0.6c0.9,0.4,1.9,0.7,2.8,1.1c0.5,0.2,0.8,0.8,0.6,1.3
		C403.5,81.4,403.1,81.7,402.7,81.7z M62.1,80.5c-0.4,0-0.8-0.2-0.9-0.7c-0.2-0.5,0.1-1.1,0.6-1.3c0.9-0.3,1.9-0.7,2.8-1
		c0.5-0.2,1.1,0.1,1.3,0.6c0.2,0.5-0.1,1.1-0.6,1.3c-0.9,0.3-1.9,0.7-2.8,1C62.3,80.4,62.2,80.5,62.1,80.5z M395.2,78.9
		c-0.1,0-0.2,0-0.3-0.1c-0.9-0.3-1.9-0.7-2.8-1c-0.5-0.2-0.8-0.8-0.6-1.3c0.2-0.5,0.8-0.8,1.3-0.6c0.9,0.3,1.9,0.7,2.8,1
		c0.5,0.2,0.8,0.8,0.6,1.3C396,78.6,395.6,78.9,395.2,78.9z M68.6,78.1c-0.4,0-0.8-0.3-0.9-0.7c-0.2-0.5,0.1-1.1,0.6-1.3
		c0.9-0.3,1.9-0.7,2.8-1c0.5-0.2,1.1,0.1,1.3,0.6c0.2,0.5-0.1,1.1-0.6,1.3c-0.9,0.3-1.9,0.7-2.8,1C68.9,78,68.8,78.1,68.6,78.1z
		 M387.6,76.2c-0.1,0-0.2,0-0.3-0.1c-0.9-0.3-1.9-0.6-2.8-1c-0.5-0.2-0.8-0.7-0.6-1.3c0.2-0.5,0.7-0.8,1.3-0.6c1,0.3,1.9,0.6,2.9,1
		c0.5,0.2,0.8,0.7,0.6,1.3C388.4,76,388,76.2,387.6,76.2z M76.2,75.4c-0.4,0-0.8-0.3-0.9-0.7c-0.2-0.5,0.1-1.1,0.6-1.3
		c0.9-0.3,1.9-0.6,2.9-1c0.5-0.2,1.1,0.1,1.3,0.6c0.2,0.5-0.1,1.1-0.6,1.3c-0.9,0.3-1.9,0.6-2.8,0.9C76.4,75.4,76.3,75.4,76.2,75.4z
		 M381,74c-0.1,0-0.2,0-0.3,0c-1-0.3-1.9-0.6-2.9-0.9c-0.5-0.2-0.8-0.7-0.6-1.3c0.2-0.5,0.7-0.8,1.3-0.6c1,0.3,1.9,0.6,2.9,0.9
		c0.5,0.2,0.8,0.7,0.6,1.3C381.8,73.7,381.4,74,381,74z M83.8,73c-0.4,0-0.8-0.3-1-0.7c-0.2-0.5,0.1-1.1,0.6-1.3
		c1-0.3,1.9-0.6,2.9-0.9c0.5-0.2,1.1,0.1,1.3,0.7c0.2,0.5-0.1,1.1-0.7,1.3c-1,0.3-1.9,0.6-2.9,0.9C84,72.9,83.9,73,83.8,73z
		 M373.3,71.6c-0.1,0-0.2,0-0.3,0c-1-0.3-1.9-0.6-2.9-0.9c-0.5-0.2-0.8-0.7-0.7-1.2c0.2-0.5,0.7-0.8,1.2-0.7c1,0.3,1.9,0.6,2.9,0.9
		c0.5,0.2,0.8,0.7,0.7,1.3C374.1,71.3,373.7,71.6,373.3,71.6z M90.5,70.9c-0.4,0-0.8-0.3-1-0.7c-0.2-0.5,0.1-1.1,0.7-1.2
		c1-0.3,1.9-0.6,2.9-0.9c0.5-0.2,1.1,0.1,1.2,0.7c0.2,0.5-0.1,1.1-0.7,1.2c-1,0.3-1.9,0.6-2.9,0.9C90.7,70.9,90.6,70.9,90.5,70.9z
		 M365.6,69.3c-0.1,0-0.2,0-0.3,0c-1-0.3-1.9-0.6-2.9-0.8c-0.5-0.2-0.8-0.7-0.7-1.2c0.1-0.5,0.7-0.8,1.2-0.7c1,0.3,1.9,0.5,2.9,0.8
		c0.5,0.2,0.8,0.7,0.7,1.2C366.5,69,366.1,69.3,365.6,69.3z M98.2,68.6c-0.4,0-0.8-0.3-1-0.7c-0.2-0.5,0.2-1.1,0.7-1.2
		c1-0.3,1.9-0.5,2.9-0.8c0.5-0.1,1.1,0.2,1.2,0.7c0.1,0.5-0.2,1.1-0.7,1.2c-1,0.3-1.9,0.5-2.9,0.8C98.3,68.6,98.3,68.6,98.2,68.6z
		 M358.9,67.4c-0.1,0-0.2,0-0.3,0c-1-0.3-1.9-0.5-2.9-0.8c-0.5-0.1-0.9-0.7-0.7-1.2s0.7-0.9,1.2-0.7c1,0.3,1.9,0.5,2.9,0.8
		c0.5,0.1,0.8,0.7,0.7,1.2C359.7,67.1,359.3,67.4,358.9,67.4z M105.9,66.5c-0.4,0-0.8-0.3-1-0.7c-0.1-0.5,0.2-1.1,0.7-1.2
		c1-0.3,1.9-0.5,2.9-0.8c0.5-0.1,1.1,0.2,1.2,0.7c0.1,0.5-0.2,1.1-0.7,1.2c-1,0.3-1.9,0.5-2.9,0.8C106,66.5,106,66.5,105.9,66.5z
		 M351.1,65.3c-0.1,0-0.2,0-0.2,0c-1-0.2-1.9-0.5-2.9-0.7c-0.5-0.1-0.9-0.7-0.7-1.2c0.1-0.5,0.7-0.9,1.2-0.7c1,0.2,1.9,0.5,2.9,0.7
		c0.5,0.1,0.9,0.7,0.7,1.2C352,65,351.6,65.3,351.1,65.3z M112.7,64.8c-0.4,0-0.9-0.3-1-0.8c-0.1-0.5,0.2-1.1,0.7-1.2
		c1-0.2,1.9-0.5,2.9-0.7c0.5-0.1,1.1,0.2,1.2,0.7s-0.2,1.1-0.7,1.2c-1,0.2-1.9,0.5-2.9,0.7C112.8,64.7,112.7,64.8,112.7,64.8z
		 M343.4,63.4c-0.1,0-0.2,0-0.2,0c-1-0.2-1.9-0.5-2.9-0.7c-0.5-0.1-0.9-0.7-0.7-1.2c0.1-0.5,0.7-0.9,1.2-0.7c1,0.2,2,0.5,2.9,0.7
		c0.5,0.1,0.9,0.7,0.7,1.2C344.2,63.1,343.8,63.4,343.4,63.4z M120.4,62.9c-0.5,0-0.9-0.3-1-0.8c-0.1-0.5,0.2-1.1,0.7-1.2
		c1-0.2,2-0.5,2.9-0.7c0.5-0.1,1.1,0.2,1.2,0.8c0.1,0.5-0.2,1.1-0.8,1.2c-1,0.2-1.9,0.4-2.9,0.7C120.6,62.9,120.5,62.9,120.4,62.9z
		 M336.6,61.8c-0.1,0-0.1,0-0.2,0c-1-0.2-1.9-0.4-2.9-0.6c-0.5-0.1-0.9-0.6-0.8-1.2c0.1-0.5,0.7-0.9,1.2-0.8c1,0.2,2,0.4,2.9,0.6
		c0.5,0.1,0.9,0.7,0.8,1.2C337.4,61.5,337,61.8,336.6,61.8z M128.2,61.1c-0.5,0-0.9-0.3-1-0.8c-0.1-0.5,0.2-1.1,0.8-1.2
		c1-0.2,2-0.4,2.9-0.6c0.5-0.1,1.1,0.2,1.2,0.8c0.1,0.5-0.2,1.1-0.8,1.2c-1,0.2-2,0.4-2.9,0.6C128.4,61.1,128.3,61.1,128.2,61.1z
		 M328.7,60.2c-0.1,0-0.1,0-0.2,0c-1-0.2-2-0.4-2.9-0.6c-0.5-0.1-0.9-0.6-0.8-1.2c0.1-0.5,0.6-0.9,1.2-0.8c1,0.2,2,0.4,2.9,0.6
		c0.5,0.1,0.9,0.6,0.8,1.2C329.6,59.8,329.2,60.2,328.7,60.2z M135.1,59.7c-0.5,0-0.9-0.3-1-0.8c-0.1-0.5,0.2-1.1,0.8-1.2
		c1-0.2,2-0.4,2.9-0.6c0.5-0.1,1.1,0.2,1.2,0.8c0.1,0.5-0.2,1.1-0.8,1.2c-1,0.2-2,0.4-2.9,0.6C135.2,59.7,135.1,59.7,135.1,59.7z
		 M320.9,58.6c-0.1,0-0.1,0-0.2,0c-1-0.2-2-0.4-2.9-0.5c-0.5-0.1-0.9-0.6-0.8-1.2s0.6-0.9,1.2-0.8c1,0.2,2,0.4,3,0.5
		c0.5,0.1,0.9,0.6,0.8,1.2C321.8,58.3,321.4,58.6,320.9,58.6z M142.9,58.2c-0.5,0-0.9-0.3-1-0.8c-0.1-0.5,0.3-1.1,0.8-1.2
		c1-0.2,2-0.4,3-0.5c0.5-0.1,1.1,0.3,1.2,0.8c0.1,0.5-0.3,1.1-0.8,1.2c-1,0.2-2,0.4-2.9,0.5C143.1,58.2,143,58.2,142.9,58.2z
		 M314,57.4c-0.1,0-0.1,0-0.2,0c-1-0.2-2-0.3-3-0.5c-0.5-0.1-0.9-0.6-0.8-1.2c0.1-0.5,0.6-0.9,1.2-0.8c1,0.2,2,0.3,3,0.5
		c0.5,0.1,0.9,0.6,0.8,1.2C314.9,57,314.5,57.4,314,57.4z M150.8,56.8c-0.5,0-0.9-0.3-1-0.8c-0.1-0.5,0.3-1.1,0.8-1.2
		c1-0.2,2-0.3,3-0.5c0.5-0.1,1.1,0.3,1.1,0.8c0.1,0.5-0.3,1.1-0.8,1.1c-1,0.2-2,0.3-3,0.5C150.9,56.8,150.9,56.8,150.8,56.8z
		 M306.1,56.1c-0.1,0-0.1,0-0.2,0c-1-0.2-2-0.3-3-0.5c-0.5-0.1-0.9-0.6-0.8-1.1c0.1-0.5,0.6-0.9,1.1-0.8c1,0.1,2,0.3,3,0.5
		c0.5,0.1,0.9,0.6,0.8,1.1C307,55.7,306.6,56.1,306.1,56.1z M157.7,55.7c-0.5,0-0.9-0.4-1-0.9c-0.1-0.5,0.3-1.1,0.8-1.1
		c1-0.1,2-0.3,3-0.4c0.5-0.1,1.1,0.3,1.1,0.8c0.1,0.5-0.3,1.1-0.8,1.1c-1,0.1-2,0.3-3,0.4C157.8,55.7,157.8,55.7,157.7,55.7z
		 M298.2,54.9c0,0-0.1,0-0.1,0c-1-0.1-2-0.3-3-0.4c-0.5-0.1-0.9-0.6-0.9-1.1c0.1-0.5,0.6-0.9,1.1-0.9c1,0.1,2,0.3,3,0.4
		c0.5,0.1,0.9,0.6,0.9,1.1C299.1,54.5,298.7,54.9,298.2,54.9z M165.7,54.6c-0.5,0-0.9-0.4-1-0.9c-0.1-0.5,0.3-1.1,0.9-1.1
		c1-0.1,2-0.3,3-0.4c0.5-0.1,1,0.3,1.1,0.9c0.1,0.5-0.3,1-0.9,1.1c-1,0.1-2,0.3-3,0.4C165.7,54.6,165.7,54.6,165.7,54.6z M291.3,54
		c0,0-0.1,0-0.1,0c-1-0.1-2-0.2-3-0.4c-0.5-0.1-0.9-0.6-0.9-1.1c0.1-0.5,0.6-0.9,1.1-0.9c1,0.1,2,0.2,3,0.4c0.5,0.1,0.9,0.6,0.9,1.1
		C292.2,53.6,291.8,54,291.3,54z M173.6,53.6c-0.5,0-0.9-0.4-1-0.9c-0.1-0.5,0.3-1,0.9-1.1c1-0.1,2-0.2,3-0.3c0.6-0.1,1,0.3,1.1,0.9
		c0.1,0.5-0.3,1-0.9,1.1c-1,0.1-2,0.2-3,0.3C173.7,53.6,173.6,53.6,173.6,53.6z M283.3,53.1c0,0-0.1,0-0.1,0c-1-0.1-2-0.2-3-0.3
		c-0.5-0.1-1-0.5-0.9-1.1c0.1-0.5,0.5-1,1.1-0.9c1,0.1,2,0.2,3,0.3c0.5,0.1,0.9,0.6,0.9,1.1C284.3,52.7,283.8,53.1,283.3,53.1z
		 M180.5,52.8c-0.5,0-0.9-0.4-1-0.9c-0.1-0.5,0.3-1,0.9-1.1c1-0.1,2-0.2,3-0.3c0.5-0.1,1,0.3,1.1,0.9c0.1,0.5-0.3,1-0.9,1.1
		c-1,0.1-2,0.2-3,0.3C180.6,52.8,180.6,52.8,180.5,52.8z M275.4,52.3C275.3,52.3,275.3,52.3,275.4,52.3c-1.1-0.1-2.1-0.2-3.1-0.3
		c-0.5,0-1-0.5-0.9-1.1c0-0.6,0.5-1,1.1-0.9c1,0.1,2,0.2,3,0.3c0.5,0.1,1,0.5,0.9,1.1C276.3,51.9,275.9,52.3,275.4,52.3z
		 M188.5,52.1c-0.5,0-1-0.4-1-0.9c0-0.6,0.4-1,0.9-1.1c1-0.1,2-0.2,3-0.2c0.5-0.1,1,0.4,1.1,0.9c0,0.6-0.4,1-0.9,1.1
		C190.6,51.9,189.6,52,188.5,52.1C188.6,52.1,188.5,52.1,188.5,52.1z M268.4,51.7C268.4,51.7,268.3,51.7,268.4,51.7
		c-1.1-0.1-2.1-0.2-3.1-0.2c-0.6,0-1-0.5-0.9-1.1c0-0.6,0.5-1,1.1-0.9c1,0.1,2,0.1,3,0.2c0.5,0,1,0.5,0.9,1.1
		C269.3,51.3,268.9,51.7,268.4,51.7z M196.5,51.4c-0.5,0-1-0.4-1-0.9c0-0.6,0.4-1,0.9-1.1c1-0.1,2-0.1,3-0.2c0.5,0,1,0.4,1.1,0.9
		c0,0.6-0.4,1-0.9,1.1C198.5,51.3,197.5,51.4,196.5,51.4C196.5,51.4,196.5,51.4,196.5,51.4z M260.4,51.1
		C260.4,51.1,260.4,51.1,260.4,51.1c-1.1-0.1-2.1-0.1-3.1-0.2c-0.6,0-1-0.5-0.9-1.1c0-0.6,0.5-1,1.1-0.9c1,0.1,2,0.1,3,0.2
		c0.6,0,1,0.5,0.9,1.1C261.4,50.7,260.9,51.1,260.4,51.1z M203.5,51c-0.5,0-1-0.4-1-0.9c0-0.6,0.4-1,0.9-1.1c1-0.1,2-0.1,3-0.2
		c0.5,0,1,0.4,1,0.9c0,0.6-0.4,1-0.9,1C205.5,50.9,204.5,50.9,203.5,51C203.5,51,203.5,51,203.5,51z M252.4,50.7
		C252.4,50.7,252.4,50.7,252.4,50.7c-1,0-2-0.1-3-0.1c-0.6,0-1-0.5-1-1c0-0.6,0.5-1,1-1c1,0,2,0.1,3,0.1c0.6,0,1,0.5,1,1
		C253.4,50.3,252.9,50.7,252.4,50.7z M211.5,50.6c-0.5,0-1-0.4-1-1c0-0.6,0.4-1,1-1c1,0,2-0.1,3-0.1c0.5,0,1,0.4,1,1s-0.4,1-1,1
		C213.5,50.5,212.5,50.6,211.5,50.6C211.5,50.6,211.5,50.6,211.5,50.6z M245.4,50.5C245.4,50.5,245.4,50.5,245.4,50.5
		c-1,0-2-0.1-3-0.1c-0.6,0-1-0.5-1-1s0.4-1,1-1c1,0,2,0.1,3,0.1c0.6,0,1,0.5,1,1C246.4,50,246,50.5,245.4,50.5z M219.4,50.4
		c-0.5,0-1-0.4-1-1c0-0.6,0.4-1,1-1c1,0,2,0,3-0.1c0.5,0,1,0.4,1,1c0,0.6-0.4,1-1,1C221.4,50.3,220.4,50.3,219.4,50.4
		C219.4,50.4,219.4,50.4,219.4,50.4z M237.4,50.3C237.4,50.3,237.4,50.3,237.4,50.3c-1,0-2,0-3,0c-0.6,0-1-0.5-1-1c0-0.5,0.5-1,1-1
		c0,0,0,0,0,0c1,0,2,0,3,0c0.6,0,1,0.5,1,1C238.4,49.8,238,50.3,237.4,50.3z M226.4,50.3c-0.5,0-1-0.4-1-1c0-0.6,0.4-1,1-1
		c1,0,2,0,3,0c0,0,0,0,0,0c0.6,0,1,0.4,1,1c0,0.6-0.4,1-1,1C228.4,50.2,227.4,50.3,226.4,50.3C226.4,50.3,226.4,50.3,226.4,50.3z"/>
</g>
<g>
	<circle class="st1" cx="389.8" cy="76.2" r="6"/>
</g>
<g>
	<circle class="st1" cx="499.3" cy="130.7" r="6"/>
</g>
<g>
	<path class="st2" d="M403.3,52.4c-1.2,1-2.8,1.5-5,1.5v1.3h-1.2V54c-2.1-0.1-3.8-0.6-5-1.5c-1.2-0.9-1.8-2.3-1.8-3.9
		c0-1.7,0.6-3,1.8-3.9c1.2-0.9,2.8-1.5,5-1.5v-1.3h1.2v1.3c2.1,0.1,3.8,0.6,4.9,1.5c1.2,1,1.8,2.3,1.8,3.9
		C405.1,50.2,404.5,51.5,403.3,52.4z M393.1,51.6c1,0.8,2.3,1.2,4,1.3v-8.8c-1.8,0.1-3.1,0.5-4,1.2c-0.9,0.8-1.4,1.8-1.4,3.1
		C391.7,49.8,392.1,50.9,393.1,51.6z M402.4,51.7c0.9-0.8,1.4-1.8,1.4-3.2c0-1.3-0.5-2.4-1.4-3.1s-2.3-1.2-4-1.2v8.8
		C400.1,52.8,401.4,52.4,402.4,51.7z"/>
	<path class="st2" d="M409.2,54.3c-0.7-0.4-1.3-1-1.7-1.7c-0.4-0.7-0.6-1.6-0.6-2.5c0-0.9,0.2-1.8,0.6-2.5c0.4-0.7,1-1.3,1.7-1.7
		c0.7-0.4,1.6-0.6,2.5-0.6s1.7,0.2,2.5,0.6s1.3,1,1.7,1.7c0.4,0.7,0.6,1.6,0.6,2.5c0,0.9-0.2,1.8-0.6,2.5c-0.4,0.7-1,1.3-1.7,1.7
		s-1.6,0.6-2.5,0.6S410,54.7,409.2,54.3z M413.5,53.3c0.5-0.3,1-0.7,1.3-1.3c0.3-0.6,0.4-1.2,0.4-1.9c0-0.7-0.2-1.4-0.4-1.9
		c-0.3-0.6-0.7-1-1.3-1.3c-0.5-0.3-1.1-0.5-1.8-0.5s-1.3,0.2-1.8,0.5c-0.5,0.3-1,0.7-1.3,1.3c-0.3,0.6-0.5,1.2-0.5,1.9
		c0,0.7,0.2,1.4,0.5,1.9c0.3,0.6,0.7,1,1.3,1.3c0.5,0.3,1.1,0.5,1.8,0.5S413,53.6,413.5,53.3z"/>
	<path class="st2" d="M426.9,45.4v9.5h-1.3v-8.3h-4.5l-0.1,2.3c-0.1,2-0.3,3.5-0.7,4.5c-0.4,1.1-1,1.6-1.9,1.6c-0.3,0-0.6,0-0.9-0.1
		l0.1-1.1c0.2,0,0.4,0.1,0.5,0.1c0.5,0,0.9-0.2,1.1-0.7s0.4-1,0.5-1.7s0.2-1.6,0.2-2.7l0.2-3.4H426.9z"/>
	<path class="st2" d="M437.3,46.5h-5.4v8.3h-1.3v-9.5h6.7V46.5z"/>
	<path class="st2" d="M447,50.5h-7.9c0.1,1,0.4,1.8,1.1,2.4c0.7,0.6,1.5,0.9,2.6,0.9c0.6,0,1.1-0.1,1.6-0.3c0.5-0.2,0.9-0.5,1.3-0.9
		l0.7,0.8c-0.4,0.5-0.9,0.9-1.6,1.2s-1.3,0.4-2.1,0.4c-1,0-1.8-0.2-2.6-0.6c-0.8-0.4-1.3-1-1.8-1.7c-0.4-0.7-0.6-1.6-0.6-2.5
		c0-0.9,0.2-1.8,0.6-2.5c0.4-0.7,1-1.3,1.7-1.7c0.7-0.4,1.5-0.6,2.4-0.6s1.7,0.2,2.4,0.6c0.7,0.4,1.2,1,1.6,1.7
		c0.4,0.7,0.6,1.6,0.6,2.5L447,50.5z M440.1,47.3c-0.6,0.6-1,1.3-1.1,2.3h6.7c-0.1-0.9-0.4-1.7-1.1-2.3c-0.6-0.6-1.4-0.9-2.3-0.9
		C441.5,46.4,440.7,46.7,440.1,47.3z"/>
	<path class="st2" d="M459.8,53.5c-1,0.8-2.3,1.3-4.1,1.4v3.4h-1.2v-3.4c-1.8-0.1-3.1-0.5-4.1-1.4c-1-0.8-1.4-2-1.4-3.5
		c0-1.5,0.5-2.6,1.4-3.4c1-0.8,2.3-1.3,4.1-1.3v-3.8h1.2v3.8c1.8,0.1,3.2,0.5,4.1,1.4c1,0.8,1.5,2,1.5,3.4
		C461.3,51.5,460.8,52.7,459.8,53.5z M451.2,52.7c0.7,0.6,1.8,1,3.2,1.1v-7.4c-1.4,0.1-2.5,0.4-3.2,1.1c-0.7,0.6-1.1,1.5-1.1,2.6
		C450.1,51.2,450.5,52.1,451.2,52.7z M458.9,52.7c0.7-0.6,1.1-1.5,1.1-2.7c0-1.1-0.4-2-1.1-2.6c-0.7-0.6-1.8-1-3.2-1v7.4
		C457.1,53.7,458.1,53.4,458.9,52.7z"/>
	<path class="st2" d="M465.4,54.3c-0.7-0.4-1.3-1-1.7-1.7c-0.4-0.7-0.6-1.6-0.6-2.5c0-0.9,0.2-1.8,0.6-2.5c0.4-0.7,1-1.3,1.7-1.7
		c0.7-0.4,1.6-0.6,2.5-0.6c0.9,0,1.7,0.2,2.5,0.6s1.3,1,1.7,1.7c0.4,0.7,0.6,1.6,0.6,2.5c0,0.9-0.2,1.8-0.6,2.5
		c-0.4,0.7-1,1.3-1.7,1.7s-1.6,0.6-2.5,0.6C466.9,54.9,466.1,54.7,465.4,54.3z M469.7,53.3c0.5-0.3,1-0.7,1.3-1.3
		c0.3-0.6,0.5-1.2,0.5-1.9c0-0.7-0.1-1.4-0.5-1.9c-0.3-0.6-0.7-1-1.3-1.3c-0.5-0.3-1.1-0.5-1.8-0.5c-0.7,0-1.3,0.2-1.8,0.5
		c-0.5,0.3-1,0.7-1.3,1.3c-0.3,0.6-0.5,1.2-0.5,1.9c0,0.7,0.2,1.4,0.5,1.9c0.3,0.6,0.7,1,1.3,1.3c0.5,0.3,1.1,0.5,1.8,0.5
		C468.5,53.8,469.1,53.6,469.7,53.3z"/>
	<path class="st2" d="M475.4,45.4h1.3v4.2h6v-4.2h1.3v9.5h-1.3v-4.2h-6v4.2h-1.3V45.4z"/>
	<path class="st2" d="M487.5,45.4h1.3v4.2h6v-4.2h1.3v9.5h-1.3v-4.2h-6v4.2h-1.3V45.4z"/>
	<path class="st2" d="M505.8,46.2c0.7,0.6,1,1.5,1,2.7v5.9h-1.2v-1.5c-0.3,0.5-0.7,0.9-1.3,1.2c-0.6,0.3-1.2,0.4-2,0.4
		c-1.1,0-1.9-0.3-2.5-0.8s-0.9-1.2-0.9-2c0-0.8,0.3-1.5,0.9-1.9c0.6-0.5,1.5-0.7,2.8-0.7h3v-0.6c0-0.8-0.2-1.4-0.7-1.9
		c-0.5-0.4-1.1-0.6-2-0.6c-0.6,0-1.2,0.1-1.7,0.3c-0.6,0.2-1,0.5-1.4,0.8l-0.6-1c0.5-0.4,1.1-0.7,1.7-0.9c0.7-0.2,1.4-0.3,2.1-0.3
		C504.2,45.3,505.1,45.6,505.8,46.2z M504.4,53.4c0.5-0.3,0.9-0.8,1.2-1.4v-1.5h-3c-1.6,0-2.4,0.6-2.4,1.7c0,0.6,0.2,1,0.6,1.3
		c0.4,0.3,1,0.5,1.8,0.5C503.2,53.9,503.8,53.7,504.4,53.4z"/>
</g>
</svg>
