<?xml version="1.0" encoding="utf-8"?>
<!-- Generator: Adobe Illustrator 23.0.2, SVG Export Plug-In . SVG Version: 6.00 Build 0)  -->
<svg version="1.1" xmlns="http://www.w3.org/2000/svg" xmlns:xlink="http://www.w3.org/1999/xlink" x="0px" y="0px"
	 viewBox="0 0 96 96" style="enable-background:new 0 0 96 96;" xml:space="preserve">
<style type="text/css">
	.st0{fill:#FFFFFF;}
	.st1{fill:#5EA89A;}
	.st2{fill:none;stroke:#5EA89A;stroke-width:5;stroke-miterlimit:10;}
</style>
<g id="Layer_1">
	<g>
		<g>
			<path class="st0" d="M-197.6-2c-11.3,0-23.5,7.8-20.4,24.3c2.3,12.6,12.1,23,17.2,27.7c1.8,1.7,4.6,1.7,6.4,0
				c5.3-4.8,15.6-15.5,17.2-27.7C-174.9,5.6-186.3-2-197.6-2z M-196.6,30.4c-6.8,0.7-12.4-5-11.7-11.7c0.5-5,4.5-9,9.5-9.5
				c6.8-0.7,12.4,5,11.7,11.7C-187.6,25.8-191.6,29.9-196.6,30.4z"/>
		</g>
		<g>
			<g>
				<path class="st0" d="M-235,89h-7.5c-1.4,0-2.5-1.1-2.5-2.5s1.1-2.5,2.5-2.5h7.5c1.4,0,2.5,1.1,2.5,2.5S-233.6,89-235,89z"/>
			</g>
			<g>
				<path class="st0" d="M-175.8,89h-14.8c-1.4,0-2.5-1.1-2.5-2.5s1.1-2.5,2.5-2.5h14.8c1.4,0,2.5,1.1,2.5,2.5S-174.4,89-175.8,89z
					 M-205.4,89h-14.8c-1.4,0-2.5-1.1-2.5-2.5s1.1-2.5,2.5-2.5h14.8c1.4,0,2.5,1.1,2.5,2.5S-204,89-205.4,89z"/>
			</g>
			<g>
				<path class="st0" d="M-153.5,89h-7.5c-1.4,0-2.5-1.1-2.5-2.5s1.1-2.5,2.5-2.5h7.5c1.4,0,2.5,1.1,2.5,2.5S-152.1,89-153.5,89z"/>
			</g>
		</g>
	</g>
	<g>
		<g>
			<circle class="st0" cx="37.1" cy="8.2" r="6.9"/>
		</g>
		<g>
			<path class="st0" d="M26.1,44.5h-9.3c-1.7,0-3.1-1.4-3.1-3.1V24.7c0-1.7,1.4-3.1,3.1-3.1h9.3c1.7,0,3.1,1.4,3.1,3.1v16.6
				C29.3,43.1,27.9,44.5,26.1,44.5z"/>
		</g>
		<g>
			<path class="st0" d="M10.4,93.7c-4.9,0-8.1-0.7-8.4-0.7c-1.3-0.3-2.2-1.6-1.9-3c0.3-1.3,1.6-2.2,3-1.9l0,0
				c1.2,0.3,29,6,54.7-22.3c16.5-18.1,34.4-23.4,35.1-23.6c1.3-0.4,2.7,0.4,3.1,1.7c0.4,1.3-0.4,2.7-1.7,3.1
				C94,47,76.9,52,61.4,69.1C42.2,90.3,21.6,93.7,10.4,93.7z"/>
		</g>
		<g>
			<path class="st0" d="M27,90.3c-1.4,0-2.5-1.1-2.5-2.5V51.3c0-1.4,1.1-2.5,2.5-2.5h23.8c0.8,0,1.5,0.4,2,1
				c0.5,0.6,0.6,1.4,0.5,2.1l-6.4,25.7c-0.3,1.3-1.7,2.2-3,1.8c-1.3-0.3-2.2-1.7-1.8-3l5.6-22.6H29.5v33.9
				C29.5,89.2,28.4,90.3,27,90.3z"/>
		</g>
		<g>
			<path class="st0" d="M37.4,53.8c-0.1,0-0.2,0-0.3,0c-1.4-0.1-2.4-1.3-2.2-2.7c0.1-1.3,0-18.4,0-29.6c0-1,0.5-1.8,1.4-2.3
				c0.9-0.4,1.9-0.3,2.6,0.3L52.2,30h12c1.4,0,2.5,1.1,2.5,2.5S65.5,35,64.1,35H51.3c-0.6,0-1.1-0.2-1.6-0.5l-9.8-7.8
				c0,9.1,0.1,23.7,0,24.9C39.8,52.9,38.7,53.8,37.4,53.8z"/>
		</g>
		<g>
			<path class="st0" d="M68.8,61c-1.1,0-2.1-0.7-2.4-1.8l-12-39.8c-0.4-1.3,0.3-2.7,1.7-3.1c1.3-0.4,2.7,0.3,3.1,1.7l12,39.8
				c0.4,1.3-0.3,2.7-1.7,3.1C69.3,61,69.1,61,68.8,61z"/>
		</g>
	</g>
	<path class="st1" d="M214.2-50c-0.3,0-0.6-0.1-0.9-0.2l-31.7-12.7L155-50.2c-0.7,0.3-1.5,0.3-2.2-0.1L123.1-67
		c-0.7-0.4-1.1-1-1.2-1.8c-0.1-0.7,0.1-1.5,0.6-2l23.2-24.7c0.7-0.7,1.8-1,2.7-0.6l16.5,6.9l16.5-6.9c0.6-0.2,1.3-0.2,1.9,0l19.6,8
		c0.6,0.3,1.1,0.8,1.4,1.4l12.3,33.4c0.3,0.9,0.1,1.9-0.6,2.6C215.5-50.2,214.8-50,214.2-50z M128.2-69.7l25.9,14.5l26.4-12.5
		c0.6-0.3,1.3-0.3,2-0.1l27.5,11L200-84l-17.7-7.2l-16.5,6.9c-0.6,0.2-1.3,0.2-1.9,0l-15.9-6.6L128.2-69.7z"/>
	<g>
		<path class="st1" d="M154.4-51.1c-0.3,0-0.5,0-0.8-0.1c-1.3-0.4-2-1.8-1.5-3.1l10.9-31.9c0.4-1.3,1.8-2,3.1-1.5
			c1.3,0.4,2,1.8,1.5,3.1l-10.9,31.9C156.3-51.7,155.4-51.1,154.4-51.1z"/>
	</g>
	<g>
		<path class="st1" d="M181.9-62.7C181.9-62.7,181.9-62.7,181.9-62.7c-1.4,0-2.5-1.1-2.4-2.5l0.4-26.5c0-1.3,1.1-2.4,2.4-2.4
			c0,0,0,0,0,0c1.3,0,2.4,1.1,2.4,2.5l-0.4,26.5C184.4-63.8,183.3-62.7,181.9-62.7z"/>
	</g>
	<g>
		<circle class="st1" cx="168.7" cy="-133.9" r="4.5"/>
	</g>
	<path class="st1" d="M172.6-101h-7.8c-0.6,0-1.1-0.5-1.1-1.1v-20.8c0-0.6,0.5-1.1,1.1-1.1h7.8c0.6,0,1.1,0.5,1.1,1.1v20.8
		C173.7-101.5,173.2-101,172.6-101z"/>
	<line class="st2" x1="160.2" y1="-124" x2="173.7" y2="-124"/>
	<path class="st1" d="M-25.6,234h-84.8c-3.1,0-5.6-2.5-5.6-5.6v-84.8c0-3.1,2.5-5.6,5.6-5.6h84.8c3.1,0,5.6,2.5,5.6,5.6v84.8
		C-20,231.5-22.5,234-25.6,234z"/>
</g>
<g id="Layer_2">
	<g>
		<g>
			<circle class="st0" cx="-74.4" cy="152.2" r="6.2"/>
		</g>
		<g>
			<path class="st0" d="M-84.6,185.1h-7.8c-1.7,0-3.1-1.4-3.1-3.1v-14.5c0-1.7,1.4-3.1,3.1-3.1h7.8c1.7,0,3.1,1.4,3.1,3.1v14.5
				C-81.5,183.7-82.9,185.1-84.6,185.1z"/>
		</g>
		<g>
			<path class="st0" d="M-98.6,229.7c-4.5,0-7.3-0.6-7.7-0.7c-1.2-0.3-2-1.5-1.7-2.7c0.3-1.2,1.5-2,2.7-1.7l0,0
				c1.1,0.2,26.3,5.4,49.5-20.2c14.9-16.4,31.1-21.2,31.8-21.4c1.2-0.3,2.5,0.4,2.8,1.6c0.3,1.2-0.4,2.5-1.6,2.8
				c-0.2,0-15.7,4.7-29.7,20.1C-69.8,226.6-88.4,229.7-98.6,229.7z"/>
		</g>
		<g>
			<path class="st0" d="M-83.5,226.6c-1.3,0-2.3-1-2.3-2.3v-33c0-1.3,1-2.3,2.3-2.3h21.6c0.7,0,1.4,0.3,1.8,0.9
				c0.4,0.5,0.6,1.3,0.4,1.9l-5.8,23.3c-0.3,1.2-1.5,2-2.7,1.6c-1.2-0.3-2-1.5-1.6-2.7l5.1-20.5h-16.4v30.7
				C-81.2,225.6-82.2,226.6-83.5,226.6z"/>
		</g>
		<g>
			<path class="st0" d="M-74.1,193.6c-0.1,0-0.2,0-0.2,0c-1.2-0.1-2.1-1.2-2-2.5c0.1-1.2,0-16.7,0-26.8c0-0.9,0.5-1.7,1.3-2
				c0.8-0.4,1.7-0.3,2.4,0.3l12,9.5h10.9c1.3,0,2.3,1,2.3,2.3s-1,2.3-2.3,2.3h-11.6c-0.5,0-1-0.2-1.4-0.5l-8.9-7.1
				c0,8.2,0.1,21.5,0,22.5C-72,192.7-73,193.6-74.1,193.6z"/>
		</g>
		<g>
			<path class="st0" d="M-45.6,200.1c-1,0-1.9-0.6-2.2-1.6l-10.9-36c-0.4-1.2,0.3-2.5,1.5-2.8c1.2-0.4,2.5,0.3,2.8,1.5l10.9,36
				c0.4,1.2-0.3,2.5-1.5,2.8C-45.2,200.1-45.4,200.1-45.6,200.1z"/>
		</g>
	</g>
</g>
</svg>
